<mxfile host="app.diagrams.net" agent="Mozilla/5.0 (Windows NT 10.0; Win64; x64) AppleWebKit/537.36 (KHTML, like Gecko) Chrome/134.0.0.0 Safari/537.36" version="26.1.0">
  <diagram name="Sida-1" id="IJWxJUB2h2guPsWvRw7D">
    <mxGraphModel dx="4698" dy="2587" grid="1" gridSize="10" guides="1" tooltips="1" connect="1" arrows="1" fold="1" page="1" pageScale="1" pageWidth="827" pageHeight="1169" math="0" shadow="0">
      <root>
        <mxCell id="0" />
        <mxCell id="1" parent="0" />
        <mxCell id="1qNEc1VxTbAyUS8kpAam-1" value="Employee" style="shape=table;startSize=30;container=1;collapsible=1;childLayout=tableLayout;fixedRows=1;rowLines=0;fontStyle=1;align=center;resizeLast=1;swimlaneFillColor=default;rounded=1;fillColor=light-dark(#7EA6E0,var(--ge-dark-color, #121212));" vertex="1" parent="1">
          <mxGeometry x="-830" y="210" width="290" height="204" as="geometry" />
        </mxCell>
        <mxCell id="1qNEc1VxTbAyUS8kpAam-2" value="" style="shape=partialRectangle;collapsible=0;dropTarget=0;pointerEvents=0;fillColor=none;points=[[0,0.5],[1,0.5]];portConstraint=eastwest;top=0;left=0;right=0;bottom=1;rounded=1;" vertex="1" parent="1qNEc1VxTbAyUS8kpAam-1">
          <mxGeometry y="30" width="290" height="30" as="geometry" />
        </mxCell>
        <mxCell id="1qNEc1VxTbAyUS8kpAam-3" value="PK   " style="shape=partialRectangle;overflow=hidden;connectable=0;fillColor=none;top=0;left=0;bottom=0;right=0;fontStyle=1;rounded=1;" vertex="1" parent="1qNEc1VxTbAyUS8kpAam-2">
          <mxGeometry width="35.75" height="30" as="geometry">
            <mxRectangle width="35.75" height="30" as="alternateBounds" />
          </mxGeometry>
        </mxCell>
        <mxCell id="1qNEc1VxTbAyUS8kpAam-4" value="EmployeeID" style="shape=partialRectangle;overflow=hidden;connectable=0;fillColor=none;top=0;left=0;bottom=0;right=0;align=left;spacingLeft=6;fontStyle=5;rounded=1;" vertex="1" parent="1qNEc1VxTbAyUS8kpAam-2">
          <mxGeometry x="35.75" width="84.25" height="30" as="geometry">
            <mxRectangle width="84.25" height="30" as="alternateBounds" />
          </mxGeometry>
        </mxCell>
        <mxCell id="1qNEc1VxTbAyUS8kpAam-5" value="INT IDENTITY (1,1)" style="shape=partialRectangle;overflow=hidden;connectable=0;fillColor=none;top=0;left=0;bottom=0;right=0;align=left;spacingLeft=6;fontStyle=5;rounded=1;" vertex="1" parent="1qNEc1VxTbAyUS8kpAam-2">
          <mxGeometry x="120" width="170" height="30" as="geometry">
            <mxRectangle width="170" height="30" as="alternateBounds" />
          </mxGeometry>
        </mxCell>
        <mxCell id="1qNEc1VxTbAyUS8kpAam-6" value="" style="shape=partialRectangle;collapsible=0;dropTarget=0;pointerEvents=0;fillColor=none;points=[[0,0.5],[1,0.5]];portConstraint=eastwest;top=0;left=0;right=0;bottom=0;rounded=1;" vertex="1" parent="1qNEc1VxTbAyUS8kpAam-1">
          <mxGeometry y="60" width="290" height="27" as="geometry" />
        </mxCell>
        <mxCell id="1qNEc1VxTbAyUS8kpAam-7" value="FK" style="shape=partialRectangle;overflow=hidden;connectable=0;fillColor=none;top=0;left=0;bottom=0;right=0;rounded=1;" vertex="1" parent="1qNEc1VxTbAyUS8kpAam-6">
          <mxGeometry width="35.75" height="27" as="geometry">
            <mxRectangle width="35.75" height="27" as="alternateBounds" />
          </mxGeometry>
        </mxCell>
        <mxCell id="1qNEc1VxTbAyUS8kpAam-8" value="BranchID" style="shape=partialRectangle;overflow=hidden;connectable=0;fillColor=none;top=0;left=0;bottom=0;right=0;align=left;spacingLeft=6;rounded=1;" vertex="1" parent="1qNEc1VxTbAyUS8kpAam-6">
          <mxGeometry x="35.75" width="84.25" height="27" as="geometry">
            <mxRectangle width="84.25" height="27" as="alternateBounds" />
          </mxGeometry>
        </mxCell>
        <mxCell id="1qNEc1VxTbAyUS8kpAam-9" value="INT" style="shape=partialRectangle;overflow=hidden;connectable=0;fillColor=none;top=0;left=0;bottom=0;right=0;align=left;spacingLeft=6;rounded=1;" vertex="1" parent="1qNEc1VxTbAyUS8kpAam-6">
          <mxGeometry x="120" width="170" height="27" as="geometry">
            <mxRectangle width="170" height="27" as="alternateBounds" />
          </mxGeometry>
        </mxCell>
        <mxCell id="1qNEc1VxTbAyUS8kpAam-10" style="shape=partialRectangle;collapsible=0;dropTarget=0;pointerEvents=0;fillColor=none;points=[[0,0.5],[1,0.5]];portConstraint=eastwest;top=0;left=0;right=0;bottom=0;rounded=1;" vertex="1" parent="1qNEc1VxTbAyUS8kpAam-1">
          <mxGeometry y="87" width="290" height="28" as="geometry" />
        </mxCell>
        <mxCell id="1qNEc1VxTbAyUS8kpAam-11" style="shape=partialRectangle;overflow=hidden;connectable=0;fillColor=none;top=0;left=0;bottom=0;right=0;rounded=1;" vertex="1" parent="1qNEc1VxTbAyUS8kpAam-10">
          <mxGeometry width="35.75" height="28" as="geometry">
            <mxRectangle width="35.75" height="28" as="alternateBounds" />
          </mxGeometry>
        </mxCell>
        <mxCell id="1qNEc1VxTbAyUS8kpAam-12" value="FirstName" style="shape=partialRectangle;overflow=hidden;connectable=0;fillColor=none;top=0;left=0;bottom=0;right=0;align=left;spacingLeft=6;rounded=1;" vertex="1" parent="1qNEc1VxTbAyUS8kpAam-10">
          <mxGeometry x="35.75" width="84.25" height="28" as="geometry">
            <mxRectangle width="84.25" height="28" as="alternateBounds" />
          </mxGeometry>
        </mxCell>
        <mxCell id="1qNEc1VxTbAyUS8kpAam-13" value="NVARCHAR(100) NOT NULL" style="shape=partialRectangle;overflow=hidden;connectable=0;fillColor=none;top=0;left=0;bottom=0;right=0;align=left;spacingLeft=6;rounded=1;" vertex="1" parent="1qNEc1VxTbAyUS8kpAam-10">
          <mxGeometry x="120" width="170" height="28" as="geometry">
            <mxRectangle width="170" height="28" as="alternateBounds" />
          </mxGeometry>
        </mxCell>
        <mxCell id="1qNEc1VxTbAyUS8kpAam-14" style="shape=partialRectangle;collapsible=0;dropTarget=0;pointerEvents=0;fillColor=none;points=[[0,0.5],[1,0.5]];portConstraint=eastwest;top=0;left=0;right=0;bottom=0;rounded=1;" vertex="1" parent="1qNEc1VxTbAyUS8kpAam-1">
          <mxGeometry y="115" width="290" height="28" as="geometry" />
        </mxCell>
        <mxCell id="1qNEc1VxTbAyUS8kpAam-15" style="shape=partialRectangle;overflow=hidden;connectable=0;fillColor=none;top=0;left=0;bottom=0;right=0;rounded=1;" vertex="1" parent="1qNEc1VxTbAyUS8kpAam-14">
          <mxGeometry width="35.75" height="28" as="geometry">
            <mxRectangle width="35.75" height="28" as="alternateBounds" />
          </mxGeometry>
        </mxCell>
        <mxCell id="1qNEc1VxTbAyUS8kpAam-16" value="LastName" style="shape=partialRectangle;overflow=hidden;connectable=0;fillColor=none;top=0;left=0;bottom=0;right=0;align=left;spacingLeft=6;rounded=1;" vertex="1" parent="1qNEc1VxTbAyUS8kpAam-14">
          <mxGeometry x="35.75" width="84.25" height="28" as="geometry">
            <mxRectangle width="84.25" height="28" as="alternateBounds" />
          </mxGeometry>
        </mxCell>
        <mxCell id="1qNEc1VxTbAyUS8kpAam-17" value="NVARCHAR(100) NOT NULL" style="shape=partialRectangle;overflow=hidden;connectable=0;fillColor=none;top=0;left=0;bottom=0;right=0;align=left;spacingLeft=6;rounded=1;" vertex="1" parent="1qNEc1VxTbAyUS8kpAam-14">
          <mxGeometry x="120" width="170" height="28" as="geometry">
            <mxRectangle width="170" height="28" as="alternateBounds" />
          </mxGeometry>
        </mxCell>
        <mxCell id="1qNEc1VxTbAyUS8kpAam-18" style="shape=partialRectangle;collapsible=0;dropTarget=0;pointerEvents=0;fillColor=none;points=[[0,0.5],[1,0.5]];portConstraint=eastwest;top=0;left=0;right=0;bottom=0;rounded=1;" vertex="1" parent="1qNEc1VxTbAyUS8kpAam-1">
          <mxGeometry y="143" width="290" height="28" as="geometry" />
        </mxCell>
        <mxCell id="1qNEc1VxTbAyUS8kpAam-19" style="shape=partialRectangle;overflow=hidden;connectable=0;fillColor=none;top=0;left=0;bottom=0;right=0;rounded=1;" vertex="1" parent="1qNEc1VxTbAyUS8kpAam-18">
          <mxGeometry width="35.75" height="28" as="geometry">
            <mxRectangle width="35.75" height="28" as="alternateBounds" />
          </mxGeometry>
        </mxCell>
        <mxCell id="1qNEc1VxTbAyUS8kpAam-20" value="Position" style="shape=partialRectangle;overflow=hidden;connectable=0;fillColor=none;top=0;left=0;bottom=0;right=0;align=left;spacingLeft=6;rounded=1;" vertex="1" parent="1qNEc1VxTbAyUS8kpAam-18">
          <mxGeometry x="35.75" width="84.25" height="28" as="geometry">
            <mxRectangle width="84.25" height="28" as="alternateBounds" />
          </mxGeometry>
        </mxCell>
        <mxCell id="1qNEc1VxTbAyUS8kpAam-21" value="NVARCHAR(50) NOT NULL" style="shape=partialRectangle;overflow=hidden;connectable=0;fillColor=none;top=0;left=0;bottom=0;right=0;align=left;spacingLeft=6;rounded=1;" vertex="1" parent="1qNEc1VxTbAyUS8kpAam-18">
          <mxGeometry x="120" width="170" height="28" as="geometry">
            <mxRectangle width="170" height="28" as="alternateBounds" />
          </mxGeometry>
        </mxCell>
        <mxCell id="1qNEc1VxTbAyUS8kpAam-22" style="shape=partialRectangle;collapsible=0;dropTarget=0;pointerEvents=0;fillColor=none;points=[[0,0.5],[1,0.5]];portConstraint=eastwest;top=0;left=0;right=0;bottom=0;rounded=1;" vertex="1" parent="1qNEc1VxTbAyUS8kpAam-1">
          <mxGeometry y="171" width="290" height="28" as="geometry" />
        </mxCell>
        <mxCell id="1qNEc1VxTbAyUS8kpAam-23" style="shape=partialRectangle;overflow=hidden;connectable=0;fillColor=none;top=0;left=0;bottom=0;right=0;rounded=1;" vertex="1" parent="1qNEc1VxTbAyUS8kpAam-22">
          <mxGeometry width="35.75" height="28" as="geometry">
            <mxRectangle width="35.75" height="28" as="alternateBounds" />
          </mxGeometry>
        </mxCell>
        <mxCell id="1qNEc1VxTbAyUS8kpAam-24" value="HireDate" style="shape=partialRectangle;overflow=hidden;connectable=0;fillColor=none;top=0;left=0;bottom=0;right=0;align=left;spacingLeft=6;rounded=1;" vertex="1" parent="1qNEc1VxTbAyUS8kpAam-22">
          <mxGeometry x="35.75" width="84.25" height="28" as="geometry">
            <mxRectangle width="84.25" height="28" as="alternateBounds" />
          </mxGeometry>
        </mxCell>
        <mxCell id="1qNEc1VxTbAyUS8kpAam-25" value="DATE NOT NULL" style="shape=partialRectangle;overflow=hidden;connectable=0;fillColor=none;top=0;left=0;bottom=0;right=0;align=left;spacingLeft=6;rounded=1;" vertex="1" parent="1qNEc1VxTbAyUS8kpAam-22">
          <mxGeometry x="120" width="170" height="28" as="geometry">
            <mxRectangle width="170" height="28" as="alternateBounds" />
          </mxGeometry>
        </mxCell>
        <mxCell id="1qNEc1VxTbAyUS8kpAam-26" value="Branch" style="shape=table;startSize=30;container=1;collapsible=1;childLayout=tableLayout;fixedRows=1;rowLines=0;fontStyle=1;align=center;resizeLast=1;swimlaneFillColor=default;rounded=1;fillColor=light-dark(#7EA6E0,var(--ge-dark-color, #121212));" vertex="1" parent="1">
          <mxGeometry x="-770" y="-10" width="340" height="148" as="geometry" />
        </mxCell>
        <mxCell id="1qNEc1VxTbAyUS8kpAam-27" value="" style="shape=partialRectangle;collapsible=0;dropTarget=0;pointerEvents=0;fillColor=none;points=[[0,0.5],[1,0.5]];portConstraint=eastwest;top=0;left=0;right=0;bottom=1;rounded=1;" vertex="1" parent="1qNEc1VxTbAyUS8kpAam-26">
          <mxGeometry y="30" width="340" height="30" as="geometry" />
        </mxCell>
        <mxCell id="1qNEc1VxTbAyUS8kpAam-28" value="PK   " style="shape=partialRectangle;overflow=hidden;connectable=0;fillColor=none;top=0;left=0;bottom=0;right=0;fontStyle=1;rounded=1;" vertex="1" parent="1qNEc1VxTbAyUS8kpAam-27">
          <mxGeometry width="35.75" height="30" as="geometry">
            <mxRectangle width="35.75" height="30" as="alternateBounds" />
          </mxGeometry>
        </mxCell>
        <mxCell id="1qNEc1VxTbAyUS8kpAam-29" value="BranchID" style="shape=partialRectangle;overflow=hidden;connectable=0;fillColor=none;top=0;left=0;bottom=0;right=0;align=left;spacingLeft=6;fontStyle=5;rounded=1;" vertex="1" parent="1qNEc1VxTbAyUS8kpAam-27">
          <mxGeometry x="35.75" width="104.25" height="30" as="geometry">
            <mxRectangle width="104.25" height="30" as="alternateBounds" />
          </mxGeometry>
        </mxCell>
        <mxCell id="1qNEc1VxTbAyUS8kpAam-30" value="INT IDENTITY (1,1)" style="shape=partialRectangle;overflow=hidden;connectable=0;fillColor=none;top=0;left=0;bottom=0;right=0;align=left;spacingLeft=6;fontStyle=5;rounded=1;" vertex="1" parent="1qNEc1VxTbAyUS8kpAam-27">
          <mxGeometry x="140" width="200" height="30" as="geometry">
            <mxRectangle width="200" height="30" as="alternateBounds" />
          </mxGeometry>
        </mxCell>
        <mxCell id="1qNEc1VxTbAyUS8kpAam-31" value="" style="shape=partialRectangle;collapsible=0;dropTarget=0;pointerEvents=0;fillColor=none;points=[[0,0.5],[1,0.5]];portConstraint=eastwest;top=0;left=0;right=0;bottom=0;rounded=1;" vertex="1" parent="1qNEc1VxTbAyUS8kpAam-26">
          <mxGeometry y="60" width="340" height="27" as="geometry" />
        </mxCell>
        <mxCell id="1qNEc1VxTbAyUS8kpAam-32" value="" style="shape=partialRectangle;overflow=hidden;connectable=0;fillColor=none;top=0;left=0;bottom=0;right=0;rounded=1;" vertex="1" parent="1qNEc1VxTbAyUS8kpAam-31">
          <mxGeometry width="35.75" height="27" as="geometry">
            <mxRectangle width="35.75" height="27" as="alternateBounds" />
          </mxGeometry>
        </mxCell>
        <mxCell id="1qNEc1VxTbAyUS8kpAam-33" value="BranchName" style="shape=partialRectangle;overflow=hidden;connectable=0;fillColor=none;top=0;left=0;bottom=0;right=0;align=left;spacingLeft=6;rounded=1;" vertex="1" parent="1qNEc1VxTbAyUS8kpAam-31">
          <mxGeometry x="35.75" width="104.25" height="27" as="geometry">
            <mxRectangle width="104.25" height="27" as="alternateBounds" />
          </mxGeometry>
        </mxCell>
        <mxCell id="1qNEc1VxTbAyUS8kpAam-34" value="NVARCHAR (100) NOT NULL" style="shape=partialRectangle;overflow=hidden;connectable=0;fillColor=none;top=0;left=0;bottom=0;right=0;align=left;spacingLeft=6;rounded=1;" vertex="1" parent="1qNEc1VxTbAyUS8kpAam-31">
          <mxGeometry x="140" width="200" height="27" as="geometry">
            <mxRectangle width="200" height="27" as="alternateBounds" />
          </mxGeometry>
        </mxCell>
        <mxCell id="1qNEc1VxTbAyUS8kpAam-35" style="shape=partialRectangle;collapsible=0;dropTarget=0;pointerEvents=0;fillColor=none;points=[[0,0.5],[1,0.5]];portConstraint=eastwest;top=0;left=0;right=0;bottom=0;rounded=1;" vertex="1" parent="1qNEc1VxTbAyUS8kpAam-26">
          <mxGeometry y="87" width="340" height="28" as="geometry" />
        </mxCell>
        <mxCell id="1qNEc1VxTbAyUS8kpAam-36" style="shape=partialRectangle;overflow=hidden;connectable=0;fillColor=none;top=0;left=0;bottom=0;right=0;rounded=1;" vertex="1" parent="1qNEc1VxTbAyUS8kpAam-35">
          <mxGeometry width="35.75" height="28" as="geometry">
            <mxRectangle width="35.75" height="28" as="alternateBounds" />
          </mxGeometry>
        </mxCell>
        <mxCell id="1qNEc1VxTbAyUS8kpAam-37" value="Location" style="shape=partialRectangle;overflow=hidden;connectable=0;fillColor=none;top=0;left=0;bottom=0;right=0;align=left;spacingLeft=6;rounded=1;" vertex="1" parent="1qNEc1VxTbAyUS8kpAam-35">
          <mxGeometry x="35.75" width="104.25" height="28" as="geometry">
            <mxRectangle width="104.25" height="28" as="alternateBounds" />
          </mxGeometry>
        </mxCell>
        <mxCell id="1qNEc1VxTbAyUS8kpAam-38" value="NVARCHAR (255) NOT NULL" style="shape=partialRectangle;overflow=hidden;connectable=0;fillColor=none;top=0;left=0;bottom=0;right=0;align=left;spacingLeft=6;rounded=1;" vertex="1" parent="1qNEc1VxTbAyUS8kpAam-35">
          <mxGeometry x="140" width="200" height="28" as="geometry">
            <mxRectangle width="200" height="28" as="alternateBounds" />
          </mxGeometry>
        </mxCell>
        <mxCell id="1qNEc1VxTbAyUS8kpAam-39" style="shape=partialRectangle;collapsible=0;dropTarget=0;pointerEvents=0;fillColor=none;points=[[0,0.5],[1,0.5]];portConstraint=eastwest;top=0;left=0;right=0;bottom=0;rounded=1;" vertex="1" parent="1qNEc1VxTbAyUS8kpAam-26">
          <mxGeometry y="115" width="340" height="28" as="geometry" />
        </mxCell>
        <mxCell id="1qNEc1VxTbAyUS8kpAam-40" style="shape=partialRectangle;overflow=hidden;connectable=0;fillColor=none;top=0;left=0;bottom=0;right=0;rounded=1;" vertex="1" parent="1qNEc1VxTbAyUS8kpAam-39">
          <mxGeometry width="35.75" height="28" as="geometry">
            <mxRectangle width="35.75" height="28" as="alternateBounds" />
          </mxGeometry>
        </mxCell>
        <mxCell id="1qNEc1VxTbAyUS8kpAam-41" value="ContactNumber" style="shape=partialRectangle;overflow=hidden;connectable=0;fillColor=none;top=0;left=0;bottom=0;right=0;align=left;spacingLeft=6;rounded=1;" vertex="1" parent="1qNEc1VxTbAyUS8kpAam-39">
          <mxGeometry x="35.75" width="104.25" height="28" as="geometry">
            <mxRectangle width="104.25" height="28" as="alternateBounds" />
          </mxGeometry>
        </mxCell>
        <mxCell id="1qNEc1VxTbAyUS8kpAam-42" value="NVARCHAR (20)" style="shape=partialRectangle;overflow=hidden;connectable=0;fillColor=none;top=0;left=0;bottom=0;right=0;align=left;spacingLeft=6;rounded=1;" vertex="1" parent="1qNEc1VxTbAyUS8kpAam-39">
          <mxGeometry x="140" width="200" height="28" as="geometry">
            <mxRectangle width="200" height="28" as="alternateBounds" />
          </mxGeometry>
        </mxCell>
        <mxCell id="1qNEc1VxTbAyUS8kpAam-43" value="CardTypes" style="shape=table;startSize=30;container=1;collapsible=1;childLayout=tableLayout;fixedRows=1;rowLines=0;fontStyle=1;align=center;resizeLast=1;swimlaneFillColor=default;rounded=1;fillColor=light-dark(#7EA6E0,var(--ge-dark-color, #121212));" vertex="1" parent="1">
          <mxGeometry x="130" y="-80" width="290" height="120" as="geometry" />
        </mxCell>
        <mxCell id="1qNEc1VxTbAyUS8kpAam-44" value="" style="shape=partialRectangle;collapsible=0;dropTarget=0;pointerEvents=0;fillColor=none;points=[[0,0.5],[1,0.5]];portConstraint=eastwest;top=0;left=0;right=0;bottom=1;rounded=1;" vertex="1" parent="1qNEc1VxTbAyUS8kpAam-43">
          <mxGeometry y="30" width="290" height="30" as="geometry" />
        </mxCell>
        <mxCell id="1qNEc1VxTbAyUS8kpAam-45" value="PK   " style="shape=partialRectangle;overflow=hidden;connectable=0;fillColor=none;top=0;left=0;bottom=0;right=0;fontStyle=1;rounded=1;" vertex="1" parent="1qNEc1VxTbAyUS8kpAam-44">
          <mxGeometry width="35.75" height="30" as="geometry">
            <mxRectangle width="35.75" height="30" as="alternateBounds" />
          </mxGeometry>
        </mxCell>
        <mxCell id="1qNEc1VxTbAyUS8kpAam-46" value="CategoryID" style="shape=partialRectangle;overflow=hidden;connectable=0;fillColor=none;top=0;left=0;bottom=0;right=0;align=left;spacingLeft=6;fontStyle=5;rounded=1;" vertex="1" parent="1qNEc1VxTbAyUS8kpAam-44">
          <mxGeometry x="35.75" width="84.25" height="30" as="geometry">
            <mxRectangle width="84.25" height="30" as="alternateBounds" />
          </mxGeometry>
        </mxCell>
        <mxCell id="1qNEc1VxTbAyUS8kpAam-47" value="INT IDENTITY (1,1)" style="shape=partialRectangle;overflow=hidden;connectable=0;fillColor=none;top=0;left=0;bottom=0;right=0;align=left;spacingLeft=6;fontStyle=5;rounded=1;" vertex="1" parent="1qNEc1VxTbAyUS8kpAam-44">
          <mxGeometry x="120" width="170" height="30" as="geometry">
            <mxRectangle width="170" height="30" as="alternateBounds" />
          </mxGeometry>
        </mxCell>
        <mxCell id="1qNEc1VxTbAyUS8kpAam-48" value="" style="shape=partialRectangle;collapsible=0;dropTarget=0;pointerEvents=0;fillColor=none;points=[[0,0.5],[1,0.5]];portConstraint=eastwest;top=0;left=0;right=0;bottom=0;rounded=1;" vertex="1" parent="1qNEc1VxTbAyUS8kpAam-43">
          <mxGeometry y="60" width="290" height="27" as="geometry" />
        </mxCell>
        <mxCell id="1qNEc1VxTbAyUS8kpAam-49" value="" style="shape=partialRectangle;overflow=hidden;connectable=0;fillColor=none;top=0;left=0;bottom=0;right=0;rounded=1;" vertex="1" parent="1qNEc1VxTbAyUS8kpAam-48">
          <mxGeometry width="35.75" height="27" as="geometry">
            <mxRectangle width="35.75" height="27" as="alternateBounds" />
          </mxGeometry>
        </mxCell>
        <mxCell id="1qNEc1VxTbAyUS8kpAam-50" value="Name" style="shape=partialRectangle;overflow=hidden;connectable=0;fillColor=none;top=0;left=0;bottom=0;right=0;align=left;spacingLeft=6;rounded=1;" vertex="1" parent="1qNEc1VxTbAyUS8kpAam-48">
          <mxGeometry x="35.75" width="84.25" height="27" as="geometry">
            <mxRectangle width="84.25" height="27" as="alternateBounds" />
          </mxGeometry>
        </mxCell>
        <mxCell id="1qNEc1VxTbAyUS8kpAam-51" value="NVARCHAR (255) NOT NULL" style="shape=partialRectangle;overflow=hidden;connectable=0;fillColor=none;top=0;left=0;bottom=0;right=0;align=left;spacingLeft=6;rounded=1;" vertex="1" parent="1qNEc1VxTbAyUS8kpAam-48">
          <mxGeometry x="120" width="170" height="27" as="geometry">
            <mxRectangle width="170" height="27" as="alternateBounds" />
          </mxGeometry>
        </mxCell>
        <mxCell id="1qNEc1VxTbAyUS8kpAam-52" style="shape=partialRectangle;collapsible=0;dropTarget=0;pointerEvents=0;fillColor=none;points=[[0,0.5],[1,0.5]];portConstraint=eastwest;top=0;left=0;right=0;bottom=0;rounded=1;" vertex="1" parent="1qNEc1VxTbAyUS8kpAam-43">
          <mxGeometry y="87" width="290" height="28" as="geometry" />
        </mxCell>
        <mxCell id="1qNEc1VxTbAyUS8kpAam-53" style="shape=partialRectangle;overflow=hidden;connectable=0;fillColor=none;top=0;left=0;bottom=0;right=0;rounded=1;" vertex="1" parent="1qNEc1VxTbAyUS8kpAam-52">
          <mxGeometry width="35.75" height="28" as="geometry">
            <mxRectangle width="35.75" height="28" as="alternateBounds" />
          </mxGeometry>
        </mxCell>
        <mxCell id="1qNEc1VxTbAyUS8kpAam-54" value="Description" style="shape=partialRectangle;overflow=hidden;connectable=0;fillColor=none;top=0;left=0;bottom=0;right=0;align=left;spacingLeft=6;rounded=1;" vertex="1" parent="1qNEc1VxTbAyUS8kpAam-52">
          <mxGeometry x="35.75" width="84.25" height="28" as="geometry">
            <mxRectangle width="84.25" height="28" as="alternateBounds" />
          </mxGeometry>
        </mxCell>
        <mxCell id="1qNEc1VxTbAyUS8kpAam-55" value="NVARCHAR (MAX)" style="shape=partialRectangle;overflow=hidden;connectable=0;fillColor=none;top=0;left=0;bottom=0;right=0;align=left;spacingLeft=6;rounded=1;" vertex="1" parent="1qNEc1VxTbAyUS8kpAam-52">
          <mxGeometry x="120" width="170" height="28" as="geometry">
            <mxRectangle width="170" height="28" as="alternateBounds" />
          </mxGeometry>
        </mxCell>
        <mxCell id="1qNEc1VxTbAyUS8kpAam-56" value="Dispositions" style="shape=table;startSize=30;container=1;collapsible=1;childLayout=tableLayout;fixedRows=1;rowLines=0;fontStyle=1;align=center;resizeLast=1;swimlaneFillColor=default;rounded=1;fillColor=light-dark(#7EA6E0,var(--ge-dark-color, #121212));" vertex="1" parent="1">
          <mxGeometry x="-310" y="138" width="360" height="148" as="geometry" />
        </mxCell>
        <mxCell id="1qNEc1VxTbAyUS8kpAam-57" value="" style="shape=partialRectangle;collapsible=0;dropTarget=0;pointerEvents=0;fillColor=none;points=[[0,0.5],[1,0.5]];portConstraint=eastwest;top=0;left=0;right=0;bottom=1;rounded=1;" vertex="1" parent="1qNEc1VxTbAyUS8kpAam-56">
          <mxGeometry y="30" width="360" height="30" as="geometry" />
        </mxCell>
        <mxCell id="1qNEc1VxTbAyUS8kpAam-58" value="PK   " style="shape=partialRectangle;overflow=hidden;connectable=0;fillColor=none;top=0;left=0;bottom=0;right=0;fontStyle=1;rounded=1;" vertex="1" parent="1qNEc1VxTbAyUS8kpAam-57">
          <mxGeometry width="35.75" height="30" as="geometry">
            <mxRectangle width="35.75" height="30" as="alternateBounds" />
          </mxGeometry>
        </mxCell>
        <mxCell id="1qNEc1VxTbAyUS8kpAam-59" value="DispositionID" style="shape=partialRectangle;overflow=hidden;connectable=0;fillColor=none;top=0;left=0;bottom=0;right=0;align=left;spacingLeft=6;fontStyle=5;rounded=1;" vertex="1" parent="1qNEc1VxTbAyUS8kpAam-57">
          <mxGeometry x="35.75" width="94.25" height="30" as="geometry">
            <mxRectangle width="94.25" height="30" as="alternateBounds" />
          </mxGeometry>
        </mxCell>
        <mxCell id="1qNEc1VxTbAyUS8kpAam-60" value="INT IDENTITY (1,1)" style="shape=partialRectangle;overflow=hidden;connectable=0;fillColor=none;top=0;left=0;bottom=0;right=0;align=left;spacingLeft=6;fontStyle=5;rounded=1;" vertex="1" parent="1qNEc1VxTbAyUS8kpAam-57">
          <mxGeometry x="130" width="230" height="30" as="geometry">
            <mxRectangle width="230" height="30" as="alternateBounds" />
          </mxGeometry>
        </mxCell>
        <mxCell id="1qNEc1VxTbAyUS8kpAam-61" value="" style="shape=partialRectangle;collapsible=0;dropTarget=0;pointerEvents=0;fillColor=none;points=[[0,0.5],[1,0.5]];portConstraint=eastwest;top=0;left=0;right=0;bottom=0;rounded=1;" vertex="1" parent="1qNEc1VxTbAyUS8kpAam-56">
          <mxGeometry y="60" width="360" height="27" as="geometry" />
        </mxCell>
        <mxCell id="1qNEc1VxTbAyUS8kpAam-62" value="FK" style="shape=partialRectangle;overflow=hidden;connectable=0;fillColor=none;top=0;left=0;bottom=0;right=0;rounded=1;" vertex="1" parent="1qNEc1VxTbAyUS8kpAam-61">
          <mxGeometry width="35.75" height="27" as="geometry">
            <mxRectangle width="35.75" height="27" as="alternateBounds" />
          </mxGeometry>
        </mxCell>
        <mxCell id="1qNEc1VxTbAyUS8kpAam-63" value="CustomerID" style="shape=partialRectangle;overflow=hidden;connectable=0;fillColor=none;top=0;left=0;bottom=0;right=0;align=left;spacingLeft=6;rounded=1;" vertex="1" parent="1qNEc1VxTbAyUS8kpAam-61">
          <mxGeometry x="35.75" width="94.25" height="27" as="geometry">
            <mxRectangle width="94.25" height="27" as="alternateBounds" />
          </mxGeometry>
        </mxCell>
        <mxCell id="1qNEc1VxTbAyUS8kpAam-64" value="INT" style="shape=partialRectangle;overflow=hidden;connectable=0;fillColor=none;top=0;left=0;bottom=0;right=0;align=left;spacingLeft=6;rounded=1;" vertex="1" parent="1qNEc1VxTbAyUS8kpAam-61">
          <mxGeometry x="130" width="230" height="27" as="geometry">
            <mxRectangle width="230" height="27" as="alternateBounds" />
          </mxGeometry>
        </mxCell>
        <mxCell id="1qNEc1VxTbAyUS8kpAam-65" style="shape=partialRectangle;collapsible=0;dropTarget=0;pointerEvents=0;fillColor=none;points=[[0,0.5],[1,0.5]];portConstraint=eastwest;top=0;left=0;right=0;bottom=0;rounded=1;" vertex="1" parent="1qNEc1VxTbAyUS8kpAam-56">
          <mxGeometry y="87" width="360" height="28" as="geometry" />
        </mxCell>
        <mxCell id="1qNEc1VxTbAyUS8kpAam-66" value="FK" style="shape=partialRectangle;overflow=hidden;connectable=0;fillColor=none;top=0;left=0;bottom=0;right=0;rounded=1;" vertex="1" parent="1qNEc1VxTbAyUS8kpAam-65">
          <mxGeometry width="35.75" height="28" as="geometry">
            <mxRectangle width="35.75" height="28" as="alternateBounds" />
          </mxGeometry>
        </mxCell>
        <mxCell id="1qNEc1VxTbAyUS8kpAam-67" value="AccountID" style="shape=partialRectangle;overflow=hidden;connectable=0;fillColor=none;top=0;left=0;bottom=0;right=0;align=left;spacingLeft=6;rounded=1;" vertex="1" parent="1qNEc1VxTbAyUS8kpAam-65">
          <mxGeometry x="35.75" width="94.25" height="28" as="geometry">
            <mxRectangle width="94.25" height="28" as="alternateBounds" />
          </mxGeometry>
        </mxCell>
        <mxCell id="1qNEc1VxTbAyUS8kpAam-68" value="INT" style="shape=partialRectangle;overflow=hidden;connectable=0;fillColor=none;top=0;left=0;bottom=0;right=0;align=left;spacingLeft=6;rounded=1;" vertex="1" parent="1qNEc1VxTbAyUS8kpAam-65">
          <mxGeometry x="130" width="230" height="28" as="geometry">
            <mxRectangle width="230" height="28" as="alternateBounds" />
          </mxGeometry>
        </mxCell>
        <mxCell id="1qNEc1VxTbAyUS8kpAam-69" style="shape=partialRectangle;collapsible=0;dropTarget=0;pointerEvents=0;fillColor=none;points=[[0,0.5],[1,0.5]];portConstraint=eastwest;top=0;left=0;right=0;bottom=0;rounded=1;" vertex="1" parent="1qNEc1VxTbAyUS8kpAam-56">
          <mxGeometry y="115" width="360" height="28" as="geometry" />
        </mxCell>
        <mxCell id="1qNEc1VxTbAyUS8kpAam-70" style="shape=partialRectangle;overflow=hidden;connectable=0;fillColor=none;top=0;left=0;bottom=0;right=0;rounded=1;" vertex="1" parent="1qNEc1VxTbAyUS8kpAam-69">
          <mxGeometry width="35.75" height="28" as="geometry">
            <mxRectangle width="35.75" height="28" as="alternateBounds" />
          </mxGeometry>
        </mxCell>
        <mxCell id="1qNEc1VxTbAyUS8kpAam-71" value="Role" style="shape=partialRectangle;overflow=hidden;connectable=0;fillColor=none;top=0;left=0;bottom=0;right=0;align=left;spacingLeft=6;rounded=1;" vertex="1" parent="1qNEc1VxTbAyUS8kpAam-69">
          <mxGeometry x="35.75" width="94.25" height="28" as="geometry">
            <mxRectangle width="94.25" height="28" as="alternateBounds" />
          </mxGeometry>
        </mxCell>
        <mxCell id="1qNEc1VxTbAyUS8kpAam-72" value="NVARCHAR(50) NOT NULL" style="shape=partialRectangle;overflow=hidden;connectable=0;fillColor=none;top=0;left=0;bottom=0;right=0;align=left;spacingLeft=6;rounded=1;" vertex="1" parent="1qNEc1VxTbAyUS8kpAam-69">
          <mxGeometry x="130" width="230" height="28" as="geometry">
            <mxRectangle width="230" height="28" as="alternateBounds" />
          </mxGeometry>
        </mxCell>
        <mxCell id="1qNEc1VxTbAyUS8kpAam-73" value="Account" style="shape=table;startSize=30;container=1;collapsible=1;childLayout=tableLayout;fixedRows=1;rowLines=0;fontStyle=1;align=center;resizeLast=1;swimlaneFillColor=default;rounded=1;fillColor=light-dark(#7EA6E0,var(--ge-dark-color, #121212));" vertex="1" parent="1">
          <mxGeometry x="-280" y="-100" width="360" height="148" as="geometry" />
        </mxCell>
        <mxCell id="1qNEc1VxTbAyUS8kpAam-74" value="" style="shape=partialRectangle;collapsible=0;dropTarget=0;pointerEvents=0;fillColor=none;points=[[0,0.5],[1,0.5]];portConstraint=eastwest;top=0;left=0;right=0;bottom=1;rounded=1;" vertex="1" parent="1qNEc1VxTbAyUS8kpAam-73">
          <mxGeometry y="30" width="360" height="30" as="geometry" />
        </mxCell>
        <mxCell id="1qNEc1VxTbAyUS8kpAam-75" value="PK   " style="shape=partialRectangle;overflow=hidden;connectable=0;fillColor=none;top=0;left=0;bottom=0;right=0;fontStyle=1;rounded=1;" vertex="1" parent="1qNEc1VxTbAyUS8kpAam-74">
          <mxGeometry width="35.75" height="30" as="geometry">
            <mxRectangle width="35.75" height="30" as="alternateBounds" />
          </mxGeometry>
        </mxCell>
        <mxCell id="1qNEc1VxTbAyUS8kpAam-76" value="AccountID" style="shape=partialRectangle;overflow=hidden;connectable=0;fillColor=none;top=0;left=0;bottom=0;right=0;align=left;spacingLeft=6;fontStyle=5;rounded=1;" vertex="1" parent="1qNEc1VxTbAyUS8kpAam-74">
          <mxGeometry x="35.75" width="84.25" height="30" as="geometry">
            <mxRectangle width="84.25" height="30" as="alternateBounds" />
          </mxGeometry>
        </mxCell>
        <mxCell id="1qNEc1VxTbAyUS8kpAam-77" value="INT IDENTITY (1,1)" style="shape=partialRectangle;overflow=hidden;connectable=0;fillColor=none;top=0;left=0;bottom=0;right=0;align=left;spacingLeft=6;fontStyle=5;rounded=1;" vertex="1" parent="1qNEc1VxTbAyUS8kpAam-74">
          <mxGeometry x="120" width="240" height="30" as="geometry">
            <mxRectangle width="240" height="30" as="alternateBounds" />
          </mxGeometry>
        </mxCell>
        <mxCell id="1qNEc1VxTbAyUS8kpAam-78" value="" style="shape=partialRectangle;collapsible=0;dropTarget=0;pointerEvents=0;fillColor=none;points=[[0,0.5],[1,0.5]];portConstraint=eastwest;top=0;left=0;right=0;bottom=0;rounded=1;" vertex="1" parent="1qNEc1VxTbAyUS8kpAam-73">
          <mxGeometry y="60" width="360" height="27" as="geometry" />
        </mxCell>
        <mxCell id="1qNEc1VxTbAyUS8kpAam-79" value="" style="shape=partialRectangle;overflow=hidden;connectable=0;fillColor=none;top=0;left=0;bottom=0;right=0;rounded=1;" vertex="1" parent="1qNEc1VxTbAyUS8kpAam-78">
          <mxGeometry width="35.75" height="27" as="geometry">
            <mxRectangle width="35.75" height="27" as="alternateBounds" />
          </mxGeometry>
        </mxCell>
        <mxCell id="1qNEc1VxTbAyUS8kpAam-80" value="Balance" style="shape=partialRectangle;overflow=hidden;connectable=0;fillColor=none;top=0;left=0;bottom=0;right=0;align=left;spacingLeft=6;rounded=1;" vertex="1" parent="1qNEc1VxTbAyUS8kpAam-78">
          <mxGeometry x="35.75" width="84.25" height="27" as="geometry">
            <mxRectangle width="84.25" height="27" as="alternateBounds" />
          </mxGeometry>
        </mxCell>
        <mxCell id="1qNEc1VxTbAyUS8kpAam-81" value="DECIMAL(18,2) NOT NULL DEFAULT 0" style="shape=partialRectangle;overflow=hidden;connectable=0;fillColor=none;top=0;left=0;bottom=0;right=0;align=left;spacingLeft=6;rounded=1;" vertex="1" parent="1qNEc1VxTbAyUS8kpAam-78">
          <mxGeometry x="120" width="240" height="27" as="geometry">
            <mxRectangle width="240" height="27" as="alternateBounds" />
          </mxGeometry>
        </mxCell>
        <mxCell id="1qNEc1VxTbAyUS8kpAam-82" style="shape=partialRectangle;collapsible=0;dropTarget=0;pointerEvents=0;fillColor=none;points=[[0,0.5],[1,0.5]];portConstraint=eastwest;top=0;left=0;right=0;bottom=0;rounded=1;" vertex="1" parent="1qNEc1VxTbAyUS8kpAam-73">
          <mxGeometry y="87" width="360" height="28" as="geometry" />
        </mxCell>
        <mxCell id="1qNEc1VxTbAyUS8kpAam-83" style="shape=partialRectangle;overflow=hidden;connectable=0;fillColor=none;top=0;left=0;bottom=0;right=0;rounded=1;" vertex="1" parent="1qNEc1VxTbAyUS8kpAam-82">
          <mxGeometry width="35.75" height="28" as="geometry">
            <mxRectangle width="35.75" height="28" as="alternateBounds" />
          </mxGeometry>
        </mxCell>
        <mxCell id="1qNEc1VxTbAyUS8kpAam-84" value="AccountType" style="shape=partialRectangle;overflow=hidden;connectable=0;fillColor=none;top=0;left=0;bottom=0;right=0;align=left;spacingLeft=6;rounded=1;" vertex="1" parent="1qNEc1VxTbAyUS8kpAam-82">
          <mxGeometry x="35.75" width="84.25" height="28" as="geometry">
            <mxRectangle width="84.25" height="28" as="alternateBounds" />
          </mxGeometry>
        </mxCell>
        <mxCell id="1qNEc1VxTbAyUS8kpAam-85" value="NVARCHAR(50) NOT NULL " style="shape=partialRectangle;overflow=hidden;connectable=0;fillColor=none;top=0;left=0;bottom=0;right=0;align=left;spacingLeft=6;rounded=1;" vertex="1" parent="1qNEc1VxTbAyUS8kpAam-82">
          <mxGeometry x="120" width="240" height="28" as="geometry">
            <mxRectangle width="240" height="28" as="alternateBounds" />
          </mxGeometry>
        </mxCell>
        <mxCell id="1qNEc1VxTbAyUS8kpAam-86" style="shape=partialRectangle;collapsible=0;dropTarget=0;pointerEvents=0;fillColor=none;points=[[0,0.5],[1,0.5]];portConstraint=eastwest;top=0;left=0;right=0;bottom=0;rounded=1;" vertex="1" parent="1qNEc1VxTbAyUS8kpAam-73">
          <mxGeometry y="115" width="360" height="28" as="geometry" />
        </mxCell>
        <mxCell id="1qNEc1VxTbAyUS8kpAam-87" value="FK" style="shape=partialRectangle;overflow=hidden;connectable=0;fillColor=none;top=0;left=0;bottom=0;right=0;rounded=1;" vertex="1" parent="1qNEc1VxTbAyUS8kpAam-86">
          <mxGeometry width="35.75" height="28" as="geometry">
            <mxRectangle width="35.75" height="28" as="alternateBounds" />
          </mxGeometry>
        </mxCell>
        <mxCell id="1qNEc1VxTbAyUS8kpAam-88" value="BranchID" style="shape=partialRectangle;overflow=hidden;connectable=0;fillColor=none;top=0;left=0;bottom=0;right=0;align=left;spacingLeft=6;rounded=1;" vertex="1" parent="1qNEc1VxTbAyUS8kpAam-86">
          <mxGeometry x="35.75" width="84.25" height="28" as="geometry">
            <mxRectangle width="84.25" height="28" as="alternateBounds" />
          </mxGeometry>
        </mxCell>
        <mxCell id="1qNEc1VxTbAyUS8kpAam-89" value="INT" style="shape=partialRectangle;overflow=hidden;connectable=0;fillColor=none;top=0;left=0;bottom=0;right=0;align=left;spacingLeft=6;rounded=1;" vertex="1" parent="1qNEc1VxTbAyUS8kpAam-86">
          <mxGeometry x="120" width="240" height="28" as="geometry">
            <mxRectangle width="240" height="28" as="alternateBounds" />
          </mxGeometry>
        </mxCell>
        <mxCell id="1qNEc1VxTbAyUS8kpAam-90" value="Merchant" style="shape=table;startSize=30;container=1;collapsible=1;childLayout=tableLayout;fixedRows=1;rowLines=0;fontStyle=1;align=center;resizeLast=1;swimlaneFillColor=default;rounded=1;fillColor=light-dark(#7EA6E0,var(--ge-dark-color, #121212));" vertex="1" parent="1">
          <mxGeometry x="110" y="350" width="300" height="90" as="geometry" />
        </mxCell>
        <mxCell id="1qNEc1VxTbAyUS8kpAam-91" value="" style="shape=partialRectangle;collapsible=0;dropTarget=0;pointerEvents=0;fillColor=none;points=[[0,0.5],[1,0.5]];portConstraint=eastwest;top=0;left=0;right=0;bottom=1;rounded=1;" vertex="1" parent="1qNEc1VxTbAyUS8kpAam-90">
          <mxGeometry y="30" width="300" height="30" as="geometry" />
        </mxCell>
        <mxCell id="1qNEc1VxTbAyUS8kpAam-92" value="PK   " style="shape=partialRectangle;overflow=hidden;connectable=0;fillColor=none;top=0;left=0;bottom=0;right=0;fontStyle=1;rounded=1;" vertex="1" parent="1qNEc1VxTbAyUS8kpAam-91">
          <mxGeometry width="35.75" height="30" as="geometry">
            <mxRectangle width="35.75" height="30" as="alternateBounds" />
          </mxGeometry>
        </mxCell>
        <mxCell id="1qNEc1VxTbAyUS8kpAam-93" value="MerchantID" style="shape=partialRectangle;overflow=hidden;connectable=0;fillColor=none;top=0;left=0;bottom=0;right=0;align=left;spacingLeft=6;fontStyle=5;rounded=1;" vertex="1" parent="1qNEc1VxTbAyUS8kpAam-91">
          <mxGeometry x="35.75" width="84.25" height="30" as="geometry">
            <mxRectangle width="84.25" height="30" as="alternateBounds" />
          </mxGeometry>
        </mxCell>
        <mxCell id="1qNEc1VxTbAyUS8kpAam-94" value="INT IDENTITY (1,1)" style="shape=partialRectangle;overflow=hidden;connectable=0;fillColor=none;top=0;left=0;bottom=0;right=0;align=left;spacingLeft=6;fontStyle=5;rounded=1;" vertex="1" parent="1qNEc1VxTbAyUS8kpAam-91">
          <mxGeometry x="120" width="180" height="30" as="geometry">
            <mxRectangle width="180" height="30" as="alternateBounds" />
          </mxGeometry>
        </mxCell>
        <mxCell id="1qNEc1VxTbAyUS8kpAam-95" value="" style="shape=partialRectangle;collapsible=0;dropTarget=0;pointerEvents=0;fillColor=none;points=[[0,0.5],[1,0.5]];portConstraint=eastwest;top=0;left=0;right=0;bottom=0;rounded=1;" vertex="1" parent="1qNEc1VxTbAyUS8kpAam-90">
          <mxGeometry y="60" width="300" height="27" as="geometry" />
        </mxCell>
        <mxCell id="1qNEc1VxTbAyUS8kpAam-96" value="" style="shape=partialRectangle;overflow=hidden;connectable=0;fillColor=none;top=0;left=0;bottom=0;right=0;rounded=1;" vertex="1" parent="1qNEc1VxTbAyUS8kpAam-95">
          <mxGeometry width="35.75" height="27" as="geometry">
            <mxRectangle width="35.75" height="27" as="alternateBounds" />
          </mxGeometry>
        </mxCell>
        <mxCell id="1qNEc1VxTbAyUS8kpAam-97" value="Name" style="shape=partialRectangle;overflow=hidden;connectable=0;fillColor=none;top=0;left=0;bottom=0;right=0;align=left;spacingLeft=6;rounded=1;" vertex="1" parent="1qNEc1VxTbAyUS8kpAam-95">
          <mxGeometry x="35.75" width="84.25" height="27" as="geometry">
            <mxRectangle width="84.25" height="27" as="alternateBounds" />
          </mxGeometry>
        </mxCell>
        <mxCell id="1qNEc1VxTbAyUS8kpAam-98" value="NVARCHAR (255) NOT NULL" style="shape=partialRectangle;overflow=hidden;connectable=0;fillColor=none;top=0;left=0;bottom=0;right=0;align=left;spacingLeft=6;rounded=1;" vertex="1" parent="1qNEc1VxTbAyUS8kpAam-95">
          <mxGeometry x="120" width="180" height="27" as="geometry">
            <mxRectangle width="180" height="27" as="alternateBounds" />
          </mxGeometry>
        </mxCell>
        <mxCell id="1qNEc1VxTbAyUS8kpAam-99" value="CardTransaction" style="shape=table;startSize=30;container=1;collapsible=1;childLayout=tableLayout;fixedRows=1;rowLines=0;fontStyle=1;align=center;resizeLast=1;swimlaneFillColor=default;rounded=1;fillColor=light-dark(#7EA6E0,var(--ge-dark-color, #121212));" vertex="1" parent="1">
          <mxGeometry x="95" y="122" width="360" height="176" as="geometry" />
        </mxCell>
        <mxCell id="1qNEc1VxTbAyUS8kpAam-100" value="" style="shape=partialRectangle;collapsible=0;dropTarget=0;pointerEvents=0;fillColor=none;points=[[0,0.5],[1,0.5]];portConstraint=eastwest;top=0;left=0;right=0;bottom=1;rounded=1;" vertex="1" parent="1qNEc1VxTbAyUS8kpAam-99">
          <mxGeometry y="30" width="360" height="30" as="geometry" />
        </mxCell>
        <mxCell id="1qNEc1VxTbAyUS8kpAam-101" value="PK   " style="shape=partialRectangle;overflow=hidden;connectable=0;fillColor=none;top=0;left=0;bottom=0;right=0;fontStyle=1;rounded=1;" vertex="1" parent="1qNEc1VxTbAyUS8kpAam-100">
          <mxGeometry width="35.75" height="30" as="geometry">
            <mxRectangle width="35.75" height="30" as="alternateBounds" />
          </mxGeometry>
        </mxCell>
        <mxCell id="1qNEc1VxTbAyUS8kpAam-102" value="TransactionID" style="shape=partialRectangle;overflow=hidden;connectable=0;fillColor=none;top=0;left=0;bottom=0;right=0;align=left;spacingLeft=6;fontStyle=5;rounded=1;" vertex="1" parent="1qNEc1VxTbAyUS8kpAam-100">
          <mxGeometry x="35.75" width="104.25" height="30" as="geometry">
            <mxRectangle width="104.25" height="30" as="alternateBounds" />
          </mxGeometry>
        </mxCell>
        <mxCell id="1qNEc1VxTbAyUS8kpAam-103" value="INT IDENTITY (1,1)" style="shape=partialRectangle;overflow=hidden;connectable=0;fillColor=none;top=0;left=0;bottom=0;right=0;align=left;spacingLeft=6;fontStyle=5;rounded=1;" vertex="1" parent="1qNEc1VxTbAyUS8kpAam-100">
          <mxGeometry x="140" width="220" height="30" as="geometry">
            <mxRectangle width="220" height="30" as="alternateBounds" />
          </mxGeometry>
        </mxCell>
        <mxCell id="1qNEc1VxTbAyUS8kpAam-104" value="" style="shape=partialRectangle;collapsible=0;dropTarget=0;pointerEvents=0;fillColor=none;points=[[0,0.5],[1,0.5]];portConstraint=eastwest;top=0;left=0;right=0;bottom=0;rounded=1;" vertex="1" parent="1qNEc1VxTbAyUS8kpAam-99">
          <mxGeometry y="60" width="360" height="27" as="geometry" />
        </mxCell>
        <mxCell id="1qNEc1VxTbAyUS8kpAam-105" value="FK" style="shape=partialRectangle;overflow=hidden;connectable=0;fillColor=none;top=0;left=0;bottom=0;right=0;rounded=1;" vertex="1" parent="1qNEc1VxTbAyUS8kpAam-104">
          <mxGeometry width="35.75" height="27" as="geometry">
            <mxRectangle width="35.75" height="27" as="alternateBounds" />
          </mxGeometry>
        </mxCell>
        <mxCell id="1qNEc1VxTbAyUS8kpAam-106" value="CardID" style="shape=partialRectangle;overflow=hidden;connectable=0;fillColor=none;top=0;left=0;bottom=0;right=0;align=left;spacingLeft=6;rounded=1;" vertex="1" parent="1qNEc1VxTbAyUS8kpAam-104">
          <mxGeometry x="35.75" width="104.25" height="27" as="geometry">
            <mxRectangle width="104.25" height="27" as="alternateBounds" />
          </mxGeometry>
        </mxCell>
        <mxCell id="1qNEc1VxTbAyUS8kpAam-107" value="INT" style="shape=partialRectangle;overflow=hidden;connectable=0;fillColor=none;top=0;left=0;bottom=0;right=0;align=left;spacingLeft=6;rounded=1;" vertex="1" parent="1qNEc1VxTbAyUS8kpAam-104">
          <mxGeometry x="140" width="220" height="27" as="geometry">
            <mxRectangle width="220" height="27" as="alternateBounds" />
          </mxGeometry>
        </mxCell>
        <mxCell id="1qNEc1VxTbAyUS8kpAam-108" style="shape=partialRectangle;collapsible=0;dropTarget=0;pointerEvents=0;fillColor=none;points=[[0,0.5],[1,0.5]];portConstraint=eastwest;top=0;left=0;right=0;bottom=0;rounded=1;" vertex="1" parent="1qNEc1VxTbAyUS8kpAam-99">
          <mxGeometry y="87" width="360" height="28" as="geometry" />
        </mxCell>
        <mxCell id="1qNEc1VxTbAyUS8kpAam-109" style="shape=partialRectangle;overflow=hidden;connectable=0;fillColor=none;top=0;left=0;bottom=0;right=0;rounded=1;" vertex="1" parent="1qNEc1VxTbAyUS8kpAam-108">
          <mxGeometry width="35.75" height="28" as="geometry">
            <mxRectangle width="35.75" height="28" as="alternateBounds" />
          </mxGeometry>
        </mxCell>
        <mxCell id="1qNEc1VxTbAyUS8kpAam-110" value="TransactionDate" style="shape=partialRectangle;overflow=hidden;connectable=0;fillColor=none;top=0;left=0;bottom=0;right=0;align=left;spacingLeft=6;rounded=1;" vertex="1" parent="1qNEc1VxTbAyUS8kpAam-108">
          <mxGeometry x="35.75" width="104.25" height="28" as="geometry">
            <mxRectangle width="104.25" height="28" as="alternateBounds" />
          </mxGeometry>
        </mxCell>
        <mxCell id="1qNEc1VxTbAyUS8kpAam-111" value="DATE DEFAULT GETDATE()" style="shape=partialRectangle;overflow=hidden;connectable=0;fillColor=none;top=0;left=0;bottom=0;right=0;align=left;spacingLeft=6;rounded=1;" vertex="1" parent="1qNEc1VxTbAyUS8kpAam-108">
          <mxGeometry x="140" width="220" height="28" as="geometry">
            <mxRectangle width="220" height="28" as="alternateBounds" />
          </mxGeometry>
        </mxCell>
        <mxCell id="1qNEc1VxTbAyUS8kpAam-112" style="shape=partialRectangle;collapsible=0;dropTarget=0;pointerEvents=0;fillColor=none;points=[[0,0.5],[1,0.5]];portConstraint=eastwest;top=0;left=0;right=0;bottom=0;rounded=1;" vertex="1" parent="1qNEc1VxTbAyUS8kpAam-99">
          <mxGeometry y="115" width="360" height="28" as="geometry" />
        </mxCell>
        <mxCell id="1qNEc1VxTbAyUS8kpAam-113" style="shape=partialRectangle;overflow=hidden;connectable=0;fillColor=none;top=0;left=0;bottom=0;right=0;rounded=1;" vertex="1" parent="1qNEc1VxTbAyUS8kpAam-112">
          <mxGeometry width="35.75" height="28" as="geometry">
            <mxRectangle width="35.75" height="28" as="alternateBounds" />
          </mxGeometry>
        </mxCell>
        <mxCell id="1qNEc1VxTbAyUS8kpAam-114" value="Amount" style="shape=partialRectangle;overflow=hidden;connectable=0;fillColor=none;top=0;left=0;bottom=0;right=0;align=left;spacingLeft=6;rounded=1;" vertex="1" parent="1qNEc1VxTbAyUS8kpAam-112">
          <mxGeometry x="35.75" width="104.25" height="28" as="geometry">
            <mxRectangle width="104.25" height="28" as="alternateBounds" />
          </mxGeometry>
        </mxCell>
        <mxCell id="1qNEc1VxTbAyUS8kpAam-115" value="DECIMAL (18,2) NOT NULL" style="shape=partialRectangle;overflow=hidden;connectable=0;fillColor=none;top=0;left=0;bottom=0;right=0;align=left;spacingLeft=6;rounded=1;" vertex="1" parent="1qNEc1VxTbAyUS8kpAam-112">
          <mxGeometry x="140" width="220" height="28" as="geometry">
            <mxRectangle width="220" height="28" as="alternateBounds" />
          </mxGeometry>
        </mxCell>
        <mxCell id="1qNEc1VxTbAyUS8kpAam-116" style="shape=partialRectangle;collapsible=0;dropTarget=0;pointerEvents=0;fillColor=none;points=[[0,0.5],[1,0.5]];portConstraint=eastwest;top=0;left=0;right=0;bottom=0;rounded=1;" vertex="1" parent="1qNEc1VxTbAyUS8kpAam-99">
          <mxGeometry y="143" width="360" height="28" as="geometry" />
        </mxCell>
        <mxCell id="1qNEc1VxTbAyUS8kpAam-117" value="FK" style="shape=partialRectangle;overflow=hidden;connectable=0;fillColor=none;top=0;left=0;bottom=0;right=0;rounded=1;" vertex="1" parent="1qNEc1VxTbAyUS8kpAam-116">
          <mxGeometry width="35.75" height="28" as="geometry">
            <mxRectangle width="35.75" height="28" as="alternateBounds" />
          </mxGeometry>
        </mxCell>
        <mxCell id="1qNEc1VxTbAyUS8kpAam-118" value="MerchantID" style="shape=partialRectangle;overflow=hidden;connectable=0;fillColor=none;top=0;left=0;bottom=0;right=0;align=left;spacingLeft=6;rounded=1;" vertex="1" parent="1qNEc1VxTbAyUS8kpAam-116">
          <mxGeometry x="35.75" width="104.25" height="28" as="geometry">
            <mxRectangle width="104.25" height="28" as="alternateBounds" />
          </mxGeometry>
        </mxCell>
        <mxCell id="1qNEc1VxTbAyUS8kpAam-119" value="INT" style="shape=partialRectangle;overflow=hidden;connectable=0;fillColor=none;top=0;left=0;bottom=0;right=0;align=left;spacingLeft=6;rounded=1;" vertex="1" parent="1qNEc1VxTbAyUS8kpAam-116">
          <mxGeometry x="140" width="220" height="28" as="geometry">
            <mxRectangle width="220" height="28" as="alternateBounds" />
          </mxGeometry>
        </mxCell>
        <mxCell id="1qNEc1VxTbAyUS8kpAam-120" value="Card" style="shape=table;startSize=30;container=1;collapsible=1;childLayout=tableLayout;fixedRows=1;rowLines=0;fontStyle=1;align=center;resizeLast=1;swimlaneFillColor=default;rounded=1;fillColor=light-dark(#7EA6E0,var(--ge-dark-color, #121212));" vertex="1" parent="1">
          <mxGeometry x="-310" y="327.5" width="370" height="262.5" as="geometry" />
        </mxCell>
        <mxCell id="1qNEc1VxTbAyUS8kpAam-121" value="" style="shape=partialRectangle;collapsible=0;dropTarget=0;pointerEvents=0;fillColor=none;points=[[0,0.5],[1,0.5]];portConstraint=eastwest;top=0;left=0;right=0;bottom=1;rounded=1;" vertex="1" parent="1qNEc1VxTbAyUS8kpAam-120">
          <mxGeometry y="30" width="370" height="30" as="geometry" />
        </mxCell>
        <mxCell id="1qNEc1VxTbAyUS8kpAam-122" value="PK   " style="shape=partialRectangle;overflow=hidden;connectable=0;fillColor=none;top=0;left=0;bottom=0;right=0;fontStyle=1;rounded=1;" vertex="1" parent="1qNEc1VxTbAyUS8kpAam-121">
          <mxGeometry width="35.75" height="30" as="geometry">
            <mxRectangle width="35.75" height="30" as="alternateBounds" />
          </mxGeometry>
        </mxCell>
        <mxCell id="1qNEc1VxTbAyUS8kpAam-123" value="CardID" style="shape=partialRectangle;overflow=hidden;connectable=0;fillColor=none;top=0;left=0;bottom=0;right=0;align=left;spacingLeft=6;fontStyle=5;rounded=1;" vertex="1" parent="1qNEc1VxTbAyUS8kpAam-121">
          <mxGeometry x="35.75" width="144.25" height="30" as="geometry">
            <mxRectangle width="144.25" height="30" as="alternateBounds" />
          </mxGeometry>
        </mxCell>
        <mxCell id="1qNEc1VxTbAyUS8kpAam-124" value="INT IDENTITY (1,1)" style="shape=partialRectangle;overflow=hidden;connectable=0;fillColor=none;top=0;left=0;bottom=0;right=0;align=left;spacingLeft=6;fontStyle=5;rounded=1;" vertex="1" parent="1qNEc1VxTbAyUS8kpAam-121">
          <mxGeometry x="180" width="190" height="30" as="geometry">
            <mxRectangle width="190" height="30" as="alternateBounds" />
          </mxGeometry>
        </mxCell>
        <mxCell id="1qNEc1VxTbAyUS8kpAam-125" value="" style="shape=partialRectangle;collapsible=0;dropTarget=0;pointerEvents=0;fillColor=none;points=[[0,0.5],[1,0.5]];portConstraint=eastwest;top=0;left=0;right=0;bottom=0;rounded=1;" vertex="1" parent="1qNEc1VxTbAyUS8kpAam-120">
          <mxGeometry y="60" width="370" height="27" as="geometry" />
        </mxCell>
        <mxCell id="1qNEc1VxTbAyUS8kpAam-126" value="FK" style="shape=partialRectangle;overflow=hidden;connectable=0;fillColor=none;top=0;left=0;bottom=0;right=0;rounded=1;" vertex="1" parent="1qNEc1VxTbAyUS8kpAam-125">
          <mxGeometry width="35.75" height="27" as="geometry">
            <mxRectangle width="35.75" height="27" as="alternateBounds" />
          </mxGeometry>
        </mxCell>
        <mxCell id="1qNEc1VxTbAyUS8kpAam-127" value="AccountID" style="shape=partialRectangle;overflow=hidden;connectable=0;fillColor=none;top=0;left=0;bottom=0;right=0;align=left;spacingLeft=6;rounded=1;" vertex="1" parent="1qNEc1VxTbAyUS8kpAam-125">
          <mxGeometry x="35.75" width="144.25" height="27" as="geometry">
            <mxRectangle width="144.25" height="27" as="alternateBounds" />
          </mxGeometry>
        </mxCell>
        <mxCell id="1qNEc1VxTbAyUS8kpAam-128" value="INT" style="shape=partialRectangle;overflow=hidden;connectable=0;fillColor=none;top=0;left=0;bottom=0;right=0;align=left;spacingLeft=6;rounded=1;" vertex="1" parent="1qNEc1VxTbAyUS8kpAam-125">
          <mxGeometry x="180" width="190" height="27" as="geometry">
            <mxRectangle width="190" height="27" as="alternateBounds" />
          </mxGeometry>
        </mxCell>
        <mxCell id="1qNEc1VxTbAyUS8kpAam-129" style="shape=partialRectangle;collapsible=0;dropTarget=0;pointerEvents=0;fillColor=none;points=[[0,0.5],[1,0.5]];portConstraint=eastwest;top=0;left=0;right=0;bottom=0;rounded=1;" vertex="1" parent="1qNEc1VxTbAyUS8kpAam-120">
          <mxGeometry y="87" width="370" height="28" as="geometry" />
        </mxCell>
        <mxCell id="1qNEc1VxTbAyUS8kpAam-130" value="FK" style="shape=partialRectangle;overflow=hidden;connectable=0;fillColor=none;top=0;left=0;bottom=0;right=0;rounded=1;" vertex="1" parent="1qNEc1VxTbAyUS8kpAam-129">
          <mxGeometry width="35.75" height="28" as="geometry">
            <mxRectangle width="35.75" height="28" as="alternateBounds" />
          </mxGeometry>
        </mxCell>
        <mxCell id="1qNEc1VxTbAyUS8kpAam-131" value="CardTypeID" style="shape=partialRectangle;overflow=hidden;connectable=0;fillColor=none;top=0;left=0;bottom=0;right=0;align=left;spacingLeft=6;rounded=1;" vertex="1" parent="1qNEc1VxTbAyUS8kpAam-129">
          <mxGeometry x="35.75" width="144.25" height="28" as="geometry">
            <mxRectangle width="144.25" height="28" as="alternateBounds" />
          </mxGeometry>
        </mxCell>
        <mxCell id="1qNEc1VxTbAyUS8kpAam-132" value="INT" style="shape=partialRectangle;overflow=hidden;connectable=0;fillColor=none;top=0;left=0;bottom=0;right=0;align=left;spacingLeft=6;rounded=1;" vertex="1" parent="1qNEc1VxTbAyUS8kpAam-129">
          <mxGeometry x="180" width="190" height="28" as="geometry">
            <mxRectangle width="190" height="28" as="alternateBounds" />
          </mxGeometry>
        </mxCell>
        <mxCell id="1qNEc1VxTbAyUS8kpAam-133" style="shape=partialRectangle;collapsible=0;dropTarget=0;pointerEvents=0;fillColor=none;points=[[0,0.5],[1,0.5]];portConstraint=eastwest;top=0;left=0;right=0;bottom=0;rounded=1;" vertex="1" parent="1qNEc1VxTbAyUS8kpAam-120">
          <mxGeometry y="115" width="370" height="28" as="geometry" />
        </mxCell>
        <mxCell id="1qNEc1VxTbAyUS8kpAam-134" value="" style="shape=partialRectangle;overflow=hidden;connectable=0;fillColor=none;top=0;left=0;bottom=0;right=0;rounded=1;" vertex="1" parent="1qNEc1VxTbAyUS8kpAam-133">
          <mxGeometry width="35.75" height="28" as="geometry">
            <mxRectangle width="35.75" height="28" as="alternateBounds" />
          </mxGeometry>
        </mxCell>
        <mxCell id="1qNEc1VxTbAyUS8kpAam-135" value="CardNumber" style="shape=partialRectangle;overflow=hidden;connectable=0;fillColor=none;top=0;left=0;bottom=0;right=0;align=left;spacingLeft=6;rounded=1;" vertex="1" parent="1qNEc1VxTbAyUS8kpAam-133">
          <mxGeometry x="35.75" width="144.25" height="28" as="geometry">
            <mxRectangle width="144.25" height="28" as="alternateBounds" />
          </mxGeometry>
        </mxCell>
        <mxCell id="1qNEc1VxTbAyUS8kpAam-136" value="CHAR(16) NOT NULL" style="shape=partialRectangle;overflow=hidden;connectable=0;fillColor=none;top=0;left=0;bottom=0;right=0;align=left;spacingLeft=6;rounded=1;" vertex="1" parent="1qNEc1VxTbAyUS8kpAam-133">
          <mxGeometry x="180" width="190" height="28" as="geometry">
            <mxRectangle width="190" height="28" as="alternateBounds" />
          </mxGeometry>
        </mxCell>
        <mxCell id="1qNEc1VxTbAyUS8kpAam-137" style="shape=partialRectangle;collapsible=0;dropTarget=0;pointerEvents=0;fillColor=none;points=[[0,0.5],[1,0.5]];portConstraint=eastwest;top=0;left=0;right=0;bottom=0;rounded=1;" vertex="1" parent="1qNEc1VxTbAyUS8kpAam-120">
          <mxGeometry y="143" width="370" height="28" as="geometry" />
        </mxCell>
        <mxCell id="1qNEc1VxTbAyUS8kpAam-138" value="" style="shape=partialRectangle;overflow=hidden;connectable=0;fillColor=none;top=0;left=0;bottom=0;right=0;rounded=1;" vertex="1" parent="1qNEc1VxTbAyUS8kpAam-137">
          <mxGeometry width="35.75" height="28" as="geometry">
            <mxRectangle width="35.75" height="28" as="alternateBounds" />
          </mxGeometry>
        </mxCell>
        <mxCell id="1qNEc1VxTbAyUS8kpAam-139" value="ExpieryDate" style="shape=partialRectangle;overflow=hidden;connectable=0;fillColor=none;top=0;left=0;bottom=0;right=0;align=left;spacingLeft=6;rounded=1;" vertex="1" parent="1qNEc1VxTbAyUS8kpAam-137">
          <mxGeometry x="35.75" width="144.25" height="28" as="geometry">
            <mxRectangle width="144.25" height="28" as="alternateBounds" />
          </mxGeometry>
        </mxCell>
        <mxCell id="1qNEc1VxTbAyUS8kpAam-140" value="DATE NOT NULL" style="shape=partialRectangle;overflow=hidden;connectable=0;fillColor=none;top=0;left=0;bottom=0;right=0;align=left;spacingLeft=6;rounded=1;" vertex="1" parent="1qNEc1VxTbAyUS8kpAam-137">
          <mxGeometry x="180" width="190" height="28" as="geometry">
            <mxRectangle width="190" height="28" as="alternateBounds" />
          </mxGeometry>
        </mxCell>
        <mxCell id="1qNEc1VxTbAyUS8kpAam-141" style="shape=partialRectangle;collapsible=0;dropTarget=0;pointerEvents=0;fillColor=none;points=[[0,0.5],[1,0.5]];portConstraint=eastwest;top=0;left=0;right=0;bottom=0;rounded=1;" vertex="1" parent="1qNEc1VxTbAyUS8kpAam-120">
          <mxGeometry y="171" width="370" height="28" as="geometry" />
        </mxCell>
        <mxCell id="1qNEc1VxTbAyUS8kpAam-142" value="" style="shape=partialRectangle;overflow=hidden;connectable=0;fillColor=none;top=0;left=0;bottom=0;right=0;rounded=1;" vertex="1" parent="1qNEc1VxTbAyUS8kpAam-141">
          <mxGeometry width="35.75" height="28" as="geometry">
            <mxRectangle width="35.75" height="28" as="alternateBounds" />
          </mxGeometry>
        </mxCell>
        <mxCell id="1qNEc1VxTbAyUS8kpAam-143" value="IsValid" style="shape=partialRectangle;overflow=hidden;connectable=0;fillColor=none;top=0;left=0;bottom=0;right=0;align=left;spacingLeft=6;rounded=1;" vertex="1" parent="1qNEc1VxTbAyUS8kpAam-141">
          <mxGeometry x="35.75" width="144.25" height="28" as="geometry">
            <mxRectangle width="144.25" height="28" as="alternateBounds" />
          </mxGeometry>
        </mxCell>
        <mxCell id="1qNEc1VxTbAyUS8kpAam-144" value="BIT DEFAULT 0" style="shape=partialRectangle;overflow=hidden;connectable=0;fillColor=none;top=0;left=0;bottom=0;right=0;align=left;spacingLeft=6;rounded=1;" vertex="1" parent="1qNEc1VxTbAyUS8kpAam-141">
          <mxGeometry x="180" width="190" height="28" as="geometry">
            <mxRectangle width="190" height="28" as="alternateBounds" />
          </mxGeometry>
        </mxCell>
        <mxCell id="1qNEc1VxTbAyUS8kpAam-145" style="shape=partialRectangle;collapsible=0;dropTarget=0;pointerEvents=0;fillColor=none;points=[[0,0.5],[1,0.5]];portConstraint=eastwest;top=0;left=0;right=0;bottom=0;rounded=1;" vertex="1" parent="1qNEc1VxTbAyUS8kpAam-120">
          <mxGeometry y="199" width="370" height="28" as="geometry" />
        </mxCell>
        <mxCell id="1qNEc1VxTbAyUS8kpAam-146" value="" style="shape=partialRectangle;overflow=hidden;connectable=0;fillColor=none;top=0;left=0;bottom=0;right=0;rounded=1;" vertex="1" parent="1qNEc1VxTbAyUS8kpAam-145">
          <mxGeometry width="35.75" height="28" as="geometry">
            <mxRectangle width="35.75" height="28" as="alternateBounds" />
          </mxGeometry>
        </mxCell>
        <mxCell id="1qNEc1VxTbAyUS8kpAam-147" value="OnlinePurchases" style="shape=partialRectangle;overflow=hidden;connectable=0;fillColor=none;top=0;left=0;bottom=0;right=0;align=left;spacingLeft=6;rounded=1;" vertex="1" parent="1qNEc1VxTbAyUS8kpAam-145">
          <mxGeometry x="35.75" width="144.25" height="28" as="geometry">
            <mxRectangle width="144.25" height="28" as="alternateBounds" />
          </mxGeometry>
        </mxCell>
        <mxCell id="1qNEc1VxTbAyUS8kpAam-148" value="BIT DEFAULT 0" style="shape=partialRectangle;overflow=hidden;connectable=0;fillColor=none;top=0;left=0;bottom=0;right=0;align=left;spacingLeft=6;rounded=1;" vertex="1" parent="1qNEc1VxTbAyUS8kpAam-145">
          <mxGeometry x="180" width="190" height="28" as="geometry">
            <mxRectangle width="190" height="28" as="alternateBounds" />
          </mxGeometry>
        </mxCell>
        <mxCell id="1qNEc1VxTbAyUS8kpAam-149" style="shape=partialRectangle;collapsible=0;dropTarget=0;pointerEvents=0;fillColor=none;points=[[0,0.5],[1,0.5]];portConstraint=eastwest;top=0;left=0;right=0;bottom=0;rounded=1;" vertex="1" parent="1qNEc1VxTbAyUS8kpAam-120">
          <mxGeometry y="227" width="370" height="28" as="geometry" />
        </mxCell>
        <mxCell id="1qNEc1VxTbAyUS8kpAam-150" value="" style="shape=partialRectangle;overflow=hidden;connectable=0;fillColor=none;top=0;left=0;bottom=0;right=0;rounded=1;" vertex="1" parent="1qNEc1VxTbAyUS8kpAam-149">
          <mxGeometry width="35.75" height="28" as="geometry">
            <mxRectangle width="35.75" height="28" as="alternateBounds" />
          </mxGeometry>
        </mxCell>
        <mxCell id="1qNEc1VxTbAyUS8kpAam-151" value="Worldwide" style="shape=partialRectangle;overflow=hidden;connectable=0;fillColor=none;top=0;left=0;bottom=0;right=0;align=left;spacingLeft=6;rounded=1;" vertex="1" parent="1qNEc1VxTbAyUS8kpAam-149">
          <mxGeometry x="35.75" width="144.25" height="28" as="geometry">
            <mxRectangle width="144.25" height="28" as="alternateBounds" />
          </mxGeometry>
        </mxCell>
        <mxCell id="1qNEc1VxTbAyUS8kpAam-152" value="BIT DEFAULT 0" style="shape=partialRectangle;overflow=hidden;connectable=0;fillColor=none;top=0;left=0;bottom=0;right=0;align=left;spacingLeft=6;rounded=1;" vertex="1" parent="1qNEc1VxTbAyUS8kpAam-149">
          <mxGeometry x="180" width="190" height="28" as="geometry">
            <mxRectangle width="190" height="28" as="alternateBounds" />
          </mxGeometry>
        </mxCell>
        <mxCell id="1qNEc1VxTbAyUS8kpAam-153" value="LoanPayment" style="shape=table;startSize=30;container=1;collapsible=1;childLayout=tableLayout;fixedRows=1;rowLines=0;fontStyle=1;align=center;resizeLast=1;swimlaneFillColor=default;rounded=1;fillColor=light-dark(#7EA6E0,var(--ge-dark-color, #121212));" vertex="1" parent="1">
          <mxGeometry x="110" y="489" width="320" height="144" as="geometry" />
        </mxCell>
        <mxCell id="1qNEc1VxTbAyUS8kpAam-154" value="" style="shape=partialRectangle;collapsible=0;dropTarget=0;pointerEvents=0;fillColor=none;points=[[0,0.5],[1,0.5]];portConstraint=eastwest;top=0;left=0;right=0;bottom=1;rounded=1;" vertex="1" parent="1qNEc1VxTbAyUS8kpAam-153">
          <mxGeometry y="30" width="320" height="30" as="geometry" />
        </mxCell>
        <mxCell id="1qNEc1VxTbAyUS8kpAam-155" value="PK   " style="shape=partialRectangle;overflow=hidden;connectable=0;fillColor=none;top=0;left=0;bottom=0;right=0;fontStyle=1;rounded=1;" vertex="1" parent="1qNEc1VxTbAyUS8kpAam-154">
          <mxGeometry width="35.75" height="30" as="geometry">
            <mxRectangle width="35.75" height="30" as="alternateBounds" />
          </mxGeometry>
        </mxCell>
        <mxCell id="1qNEc1VxTbAyUS8kpAam-156" value="PaymentID" style="shape=partialRectangle;overflow=hidden;connectable=0;fillColor=none;top=0;left=0;bottom=0;right=0;align=left;spacingLeft=6;fontStyle=5;rounded=1;" vertex="1" parent="1qNEc1VxTbAyUS8kpAam-154">
          <mxGeometry x="35.75" width="84.25" height="30" as="geometry">
            <mxRectangle width="84.25" height="30" as="alternateBounds" />
          </mxGeometry>
        </mxCell>
        <mxCell id="1qNEc1VxTbAyUS8kpAam-157" value="INT IDENTITY (1,1)" style="shape=partialRectangle;overflow=hidden;connectable=0;fillColor=none;top=0;left=0;bottom=0;right=0;align=left;spacingLeft=6;fontStyle=5;rounded=1;" vertex="1" parent="1qNEc1VxTbAyUS8kpAam-154">
          <mxGeometry x="120" width="200" height="30" as="geometry">
            <mxRectangle width="200" height="30" as="alternateBounds" />
          </mxGeometry>
        </mxCell>
        <mxCell id="1qNEc1VxTbAyUS8kpAam-158" value="" style="shape=partialRectangle;collapsible=0;dropTarget=0;pointerEvents=0;fillColor=none;points=[[0,0.5],[1,0.5]];portConstraint=eastwest;top=0;left=0;right=0;bottom=0;rounded=1;" vertex="1" parent="1qNEc1VxTbAyUS8kpAam-153">
          <mxGeometry y="60" width="320" height="27" as="geometry" />
        </mxCell>
        <mxCell id="1qNEc1VxTbAyUS8kpAam-159" value="FK" style="shape=partialRectangle;overflow=hidden;connectable=0;fillColor=none;top=0;left=0;bottom=0;right=0;rounded=1;" vertex="1" parent="1qNEc1VxTbAyUS8kpAam-158">
          <mxGeometry width="35.75" height="27" as="geometry">
            <mxRectangle width="35.75" height="27" as="alternateBounds" />
          </mxGeometry>
        </mxCell>
        <mxCell id="1qNEc1VxTbAyUS8kpAam-160" value="LoanID" style="shape=partialRectangle;overflow=hidden;connectable=0;fillColor=none;top=0;left=0;bottom=0;right=0;align=left;spacingLeft=6;rounded=1;" vertex="1" parent="1qNEc1VxTbAyUS8kpAam-158">
          <mxGeometry x="35.75" width="84.25" height="27" as="geometry">
            <mxRectangle width="84.25" height="27" as="alternateBounds" />
          </mxGeometry>
        </mxCell>
        <mxCell id="1qNEc1VxTbAyUS8kpAam-161" value="INT" style="shape=partialRectangle;overflow=hidden;connectable=0;fillColor=none;top=0;left=0;bottom=0;right=0;align=left;spacingLeft=6;rounded=1;" vertex="1" parent="1qNEc1VxTbAyUS8kpAam-158">
          <mxGeometry x="120" width="200" height="27" as="geometry">
            <mxRectangle width="200" height="27" as="alternateBounds" />
          </mxGeometry>
        </mxCell>
        <mxCell id="1qNEc1VxTbAyUS8kpAam-162" style="shape=partialRectangle;collapsible=0;dropTarget=0;pointerEvents=0;fillColor=none;points=[[0,0.5],[1,0.5]];portConstraint=eastwest;top=0;left=0;right=0;bottom=0;rounded=1;" vertex="1" parent="1qNEc1VxTbAyUS8kpAam-153">
          <mxGeometry y="87" width="320" height="28" as="geometry" />
        </mxCell>
        <mxCell id="1qNEc1VxTbAyUS8kpAam-163" style="shape=partialRectangle;overflow=hidden;connectable=0;fillColor=none;top=0;left=0;bottom=0;right=0;rounded=1;" vertex="1" parent="1qNEc1VxTbAyUS8kpAam-162">
          <mxGeometry width="35.75" height="28" as="geometry">
            <mxRectangle width="35.75" height="28" as="alternateBounds" />
          </mxGeometry>
        </mxCell>
        <mxCell id="1qNEc1VxTbAyUS8kpAam-164" value="PaymentDate" style="shape=partialRectangle;overflow=hidden;connectable=0;fillColor=none;top=0;left=0;bottom=0;right=0;align=left;spacingLeft=6;rounded=1;" vertex="1" parent="1qNEc1VxTbAyUS8kpAam-162">
          <mxGeometry x="35.75" width="84.25" height="28" as="geometry">
            <mxRectangle width="84.25" height="28" as="alternateBounds" />
          </mxGeometry>
        </mxCell>
        <mxCell id="1qNEc1VxTbAyUS8kpAam-165" value="DATE DEFAULT GETDATE()" style="shape=partialRectangle;overflow=hidden;connectable=0;fillColor=none;top=0;left=0;bottom=0;right=0;align=left;spacingLeft=6;rounded=1;" vertex="1" parent="1qNEc1VxTbAyUS8kpAam-162">
          <mxGeometry x="120" width="200" height="28" as="geometry">
            <mxRectangle width="200" height="28" as="alternateBounds" />
          </mxGeometry>
        </mxCell>
        <mxCell id="1qNEc1VxTbAyUS8kpAam-166" style="shape=partialRectangle;collapsible=0;dropTarget=0;pointerEvents=0;fillColor=none;points=[[0,0.5],[1,0.5]];portConstraint=eastwest;top=0;left=0;right=0;bottom=0;rounded=1;" vertex="1" parent="1qNEc1VxTbAyUS8kpAam-153">
          <mxGeometry y="115" width="320" height="28" as="geometry" />
        </mxCell>
        <mxCell id="1qNEc1VxTbAyUS8kpAam-167" style="shape=partialRectangle;overflow=hidden;connectable=0;fillColor=none;top=0;left=0;bottom=0;right=0;rounded=1;" vertex="1" parent="1qNEc1VxTbAyUS8kpAam-166">
          <mxGeometry width="35.75" height="28" as="geometry">
            <mxRectangle width="35.75" height="28" as="alternateBounds" />
          </mxGeometry>
        </mxCell>
        <mxCell id="1qNEc1VxTbAyUS8kpAam-168" value="AmountPaid" style="shape=partialRectangle;overflow=hidden;connectable=0;fillColor=none;top=0;left=0;bottom=0;right=0;align=left;spacingLeft=6;rounded=1;" vertex="1" parent="1qNEc1VxTbAyUS8kpAam-166">
          <mxGeometry x="35.75" width="84.25" height="28" as="geometry">
            <mxRectangle width="84.25" height="28" as="alternateBounds" />
          </mxGeometry>
        </mxCell>
        <mxCell id="1qNEc1VxTbAyUS8kpAam-169" value="DECIMAL (18,2) NOT NULL" style="shape=partialRectangle;overflow=hidden;connectable=0;fillColor=none;top=0;left=0;bottom=0;right=0;align=left;spacingLeft=6;rounded=1;" vertex="1" parent="1qNEc1VxTbAyUS8kpAam-166">
          <mxGeometry x="120" width="200" height="28" as="geometry">
            <mxRectangle width="200" height="28" as="alternateBounds" />
          </mxGeometry>
        </mxCell>
        <mxCell id="1qNEc1VxTbAyUS8kpAam-170" value="Loan" style="shape=table;startSize=30;container=1;collapsible=1;childLayout=tableLayout;fixedRows=1;rowLines=0;fontStyle=1;align=center;resizeLast=1;swimlaneFillColor=default;rounded=1;fillColor=light-dark(#7EA6E0,var(--ge-dark-color, #121212));" vertex="1" parent="1">
          <mxGeometry x="550" y="90" width="350" height="228" as="geometry" />
        </mxCell>
        <mxCell id="1qNEc1VxTbAyUS8kpAam-171" value="" style="shape=partialRectangle;collapsible=0;dropTarget=0;pointerEvents=0;fillColor=none;points=[[0,0.5],[1,0.5]];portConstraint=eastwest;top=0;left=0;right=0;bottom=1;rounded=1;" vertex="1" parent="1qNEc1VxTbAyUS8kpAam-170">
          <mxGeometry y="30" width="350" height="30" as="geometry" />
        </mxCell>
        <mxCell id="1qNEc1VxTbAyUS8kpAam-172" value="PK" style="shape=partialRectangle;overflow=hidden;connectable=0;fillColor=none;top=0;left=0;bottom=0;right=0;fontStyle=1;rounded=1;" vertex="1" parent="1qNEc1VxTbAyUS8kpAam-171">
          <mxGeometry width="35.75" height="30" as="geometry">
            <mxRectangle width="35.75" height="30" as="alternateBounds" />
          </mxGeometry>
        </mxCell>
        <mxCell id="1qNEc1VxTbAyUS8kpAam-173" value="LoanID" style="shape=partialRectangle;overflow=hidden;connectable=0;fillColor=none;top=0;left=0;bottom=0;right=0;align=left;spacingLeft=6;fontStyle=5;rounded=1;" vertex="1" parent="1qNEc1VxTbAyUS8kpAam-171">
          <mxGeometry x="35.75" width="104.25" height="30" as="geometry">
            <mxRectangle width="104.25" height="30" as="alternateBounds" />
          </mxGeometry>
        </mxCell>
        <mxCell id="1qNEc1VxTbAyUS8kpAam-174" value="INT IDENTITY (1,1)" style="shape=partialRectangle;overflow=hidden;connectable=0;fillColor=none;top=0;left=0;bottom=0;right=0;align=left;spacingLeft=6;fontStyle=5;rounded=1;" vertex="1" parent="1qNEc1VxTbAyUS8kpAam-171">
          <mxGeometry x="140" width="210" height="30" as="geometry">
            <mxRectangle width="210" height="30" as="alternateBounds" />
          </mxGeometry>
        </mxCell>
        <mxCell id="1qNEc1VxTbAyUS8kpAam-175" value="" style="shape=partialRectangle;collapsible=0;dropTarget=0;pointerEvents=0;fillColor=none;points=[[0,0.5],[1,0.5]];portConstraint=eastwest;top=0;left=0;right=0;bottom=0;rounded=1;" vertex="1" parent="1qNEc1VxTbAyUS8kpAam-170">
          <mxGeometry y="60" width="350" height="27" as="geometry" />
        </mxCell>
        <mxCell id="1qNEc1VxTbAyUS8kpAam-176" value="FK" style="shape=partialRectangle;overflow=hidden;connectable=0;fillColor=none;top=0;left=0;bottom=0;right=0;rounded=1;" vertex="1" parent="1qNEc1VxTbAyUS8kpAam-175">
          <mxGeometry width="35.75" height="27" as="geometry">
            <mxRectangle width="35.75" height="27" as="alternateBounds" />
          </mxGeometry>
        </mxCell>
        <mxCell id="1qNEc1VxTbAyUS8kpAam-177" value="CustomerID" style="shape=partialRectangle;overflow=hidden;connectable=0;fillColor=none;top=0;left=0;bottom=0;right=0;align=left;spacingLeft=6;rounded=1;" vertex="1" parent="1qNEc1VxTbAyUS8kpAam-175">
          <mxGeometry x="35.75" width="104.25" height="27" as="geometry">
            <mxRectangle width="104.25" height="27" as="alternateBounds" />
          </mxGeometry>
        </mxCell>
        <mxCell id="1qNEc1VxTbAyUS8kpAam-178" value="INT" style="shape=partialRectangle;overflow=hidden;connectable=0;fillColor=none;top=0;left=0;bottom=0;right=0;align=left;spacingLeft=6;rounded=1;" vertex="1" parent="1qNEc1VxTbAyUS8kpAam-175">
          <mxGeometry x="140" width="210" height="27" as="geometry">
            <mxRectangle width="210" height="27" as="alternateBounds" />
          </mxGeometry>
        </mxCell>
        <mxCell id="1qNEc1VxTbAyUS8kpAam-179" style="shape=partialRectangle;collapsible=0;dropTarget=0;pointerEvents=0;fillColor=none;points=[[0,0.5],[1,0.5]];portConstraint=eastwest;top=0;left=0;right=0;bottom=0;rounded=1;" vertex="1" parent="1qNEc1VxTbAyUS8kpAam-170">
          <mxGeometry y="87" width="350" height="28" as="geometry" />
        </mxCell>
        <mxCell id="1qNEc1VxTbAyUS8kpAam-180" value="FK" style="shape=partialRectangle;overflow=hidden;connectable=0;fillColor=none;top=0;left=0;bottom=0;right=0;rounded=1;" vertex="1" parent="1qNEc1VxTbAyUS8kpAam-179">
          <mxGeometry width="35.75" height="28" as="geometry">
            <mxRectangle width="35.75" height="28" as="alternateBounds" />
          </mxGeometry>
        </mxCell>
        <mxCell id="1qNEc1VxTbAyUS8kpAam-181" value="AccountID" style="shape=partialRectangle;overflow=hidden;connectable=0;fillColor=none;top=0;left=0;bottom=0;right=0;align=left;spacingLeft=6;rounded=1;" vertex="1" parent="1qNEc1VxTbAyUS8kpAam-179">
          <mxGeometry x="35.75" width="104.25" height="28" as="geometry">
            <mxRectangle width="104.25" height="28" as="alternateBounds" />
          </mxGeometry>
        </mxCell>
        <mxCell id="1qNEc1VxTbAyUS8kpAam-182" value="INT" style="shape=partialRectangle;overflow=hidden;connectable=0;fillColor=none;top=0;left=0;bottom=0;right=0;align=left;spacingLeft=6;rounded=1;" vertex="1" parent="1qNEc1VxTbAyUS8kpAam-179">
          <mxGeometry x="140" width="210" height="28" as="geometry">
            <mxRectangle width="210" height="28" as="alternateBounds" />
          </mxGeometry>
        </mxCell>
        <mxCell id="1qNEc1VxTbAyUS8kpAam-183" style="shape=partialRectangle;collapsible=0;dropTarget=0;pointerEvents=0;fillColor=none;points=[[0,0.5],[1,0.5]];portConstraint=eastwest;top=0;left=0;right=0;bottom=0;rounded=1;" vertex="1" parent="1qNEc1VxTbAyUS8kpAam-170">
          <mxGeometry y="115" width="350" height="28" as="geometry" />
        </mxCell>
        <mxCell id="1qNEc1VxTbAyUS8kpAam-184" style="shape=partialRectangle;overflow=hidden;connectable=0;fillColor=none;top=0;left=0;bottom=0;right=0;rounded=1;" vertex="1" parent="1qNEc1VxTbAyUS8kpAam-183">
          <mxGeometry width="35.75" height="28" as="geometry">
            <mxRectangle width="35.75" height="28" as="alternateBounds" />
          </mxGeometry>
        </mxCell>
        <mxCell id="1qNEc1VxTbAyUS8kpAam-185" value="LoanAmount" style="shape=partialRectangle;overflow=hidden;connectable=0;fillColor=none;top=0;left=0;bottom=0;right=0;align=left;spacingLeft=6;rounded=1;" vertex="1" parent="1qNEc1VxTbAyUS8kpAam-183">
          <mxGeometry x="35.75" width="104.25" height="28" as="geometry">
            <mxRectangle width="104.25" height="28" as="alternateBounds" />
          </mxGeometry>
        </mxCell>
        <mxCell id="1qNEc1VxTbAyUS8kpAam-186" value="DECIMAL (18,2) NOT NULL" style="shape=partialRectangle;overflow=hidden;connectable=0;fillColor=none;top=0;left=0;bottom=0;right=0;align=left;spacingLeft=6;rounded=1;" vertex="1" parent="1qNEc1VxTbAyUS8kpAam-183">
          <mxGeometry x="140" width="210" height="28" as="geometry">
            <mxRectangle width="210" height="28" as="alternateBounds" />
          </mxGeometry>
        </mxCell>
        <mxCell id="1qNEc1VxTbAyUS8kpAam-187" style="shape=partialRectangle;collapsible=0;dropTarget=0;pointerEvents=0;fillColor=none;points=[[0,0.5],[1,0.5]];portConstraint=eastwest;top=0;left=0;right=0;bottom=0;rounded=1;" vertex="1" parent="1qNEc1VxTbAyUS8kpAam-170">
          <mxGeometry y="143" width="350" height="28" as="geometry" />
        </mxCell>
        <mxCell id="1qNEc1VxTbAyUS8kpAam-188" value="FK" style="shape=partialRectangle;overflow=hidden;connectable=0;fillColor=none;top=0;left=0;bottom=0;right=0;rounded=1;" vertex="1" parent="1qNEc1VxTbAyUS8kpAam-187">
          <mxGeometry width="35.75" height="28" as="geometry">
            <mxRectangle width="35.75" height="28" as="alternateBounds" />
          </mxGeometry>
        </mxCell>
        <mxCell id="1qNEc1VxTbAyUS8kpAam-189" value="InterestRateID" style="shape=partialRectangle;overflow=hidden;connectable=0;fillColor=none;top=0;left=0;bottom=0;right=0;align=left;spacingLeft=6;rounded=1;" vertex="1" parent="1qNEc1VxTbAyUS8kpAam-187">
          <mxGeometry x="35.75" width="104.25" height="28" as="geometry">
            <mxRectangle width="104.25" height="28" as="alternateBounds" />
          </mxGeometry>
        </mxCell>
        <mxCell id="1qNEc1VxTbAyUS8kpAam-190" value="INT" style="shape=partialRectangle;overflow=hidden;connectable=0;fillColor=none;top=0;left=0;bottom=0;right=0;align=left;spacingLeft=6;rounded=1;" vertex="1" parent="1qNEc1VxTbAyUS8kpAam-187">
          <mxGeometry x="140" width="210" height="28" as="geometry">
            <mxRectangle width="210" height="28" as="alternateBounds" />
          </mxGeometry>
        </mxCell>
        <mxCell id="1qNEc1VxTbAyUS8kpAam-191" style="shape=partialRectangle;collapsible=0;dropTarget=0;pointerEvents=0;fillColor=none;points=[[0,0.5],[1,0.5]];portConstraint=eastwest;top=0;left=0;right=0;bottom=0;rounded=1;" vertex="1" parent="1qNEc1VxTbAyUS8kpAam-170">
          <mxGeometry y="171" width="350" height="28" as="geometry" />
        </mxCell>
        <mxCell id="1qNEc1VxTbAyUS8kpAam-192" style="shape=partialRectangle;overflow=hidden;connectable=0;fillColor=none;top=0;left=0;bottom=0;right=0;rounded=1;" vertex="1" parent="1qNEc1VxTbAyUS8kpAam-191">
          <mxGeometry width="35.75" height="28" as="geometry">
            <mxRectangle width="35.75" height="28" as="alternateBounds" />
          </mxGeometry>
        </mxCell>
        <mxCell id="1qNEc1VxTbAyUS8kpAam-193" value="LoanStartDate" style="shape=partialRectangle;overflow=hidden;connectable=0;fillColor=none;top=0;left=0;bottom=0;right=0;align=left;spacingLeft=6;rounded=1;" vertex="1" parent="1qNEc1VxTbAyUS8kpAam-191">
          <mxGeometry x="35.75" width="104.25" height="28" as="geometry">
            <mxRectangle width="104.25" height="28" as="alternateBounds" />
          </mxGeometry>
        </mxCell>
        <mxCell id="1qNEc1VxTbAyUS8kpAam-194" value="DATE NOT NULL" style="shape=partialRectangle;overflow=hidden;connectable=0;fillColor=none;top=0;left=0;bottom=0;right=0;align=left;spacingLeft=6;rounded=1;" vertex="1" parent="1qNEc1VxTbAyUS8kpAam-191">
          <mxGeometry x="140" width="210" height="28" as="geometry">
            <mxRectangle width="210" height="28" as="alternateBounds" />
          </mxGeometry>
        </mxCell>
        <mxCell id="1qNEc1VxTbAyUS8kpAam-195" style="shape=partialRectangle;collapsible=0;dropTarget=0;pointerEvents=0;fillColor=none;points=[[0,0.5],[1,0.5]];portConstraint=eastwest;top=0;left=0;right=0;bottom=0;rounded=1;" vertex="1" parent="1qNEc1VxTbAyUS8kpAam-170">
          <mxGeometry y="199" width="350" height="28" as="geometry" />
        </mxCell>
        <mxCell id="1qNEc1VxTbAyUS8kpAam-196" style="shape=partialRectangle;overflow=hidden;connectable=0;fillColor=none;top=0;left=0;bottom=0;right=0;rounded=1;" vertex="1" parent="1qNEc1VxTbAyUS8kpAam-195">
          <mxGeometry width="35.75" height="28" as="geometry">
            <mxRectangle width="35.75" height="28" as="alternateBounds" />
          </mxGeometry>
        </mxCell>
        <mxCell id="1qNEc1VxTbAyUS8kpAam-197" value="LoanTermMonths" style="shape=partialRectangle;overflow=hidden;connectable=0;fillColor=none;top=0;left=0;bottom=0;right=0;align=left;spacingLeft=6;rounded=1;" vertex="1" parent="1qNEc1VxTbAyUS8kpAam-195">
          <mxGeometry x="35.75" width="104.25" height="28" as="geometry">
            <mxRectangle width="104.25" height="28" as="alternateBounds" />
          </mxGeometry>
        </mxCell>
        <mxCell id="1qNEc1VxTbAyUS8kpAam-198" value="INT NOT NULL" style="shape=partialRectangle;overflow=hidden;connectable=0;fillColor=none;top=0;left=0;bottom=0;right=0;align=left;spacingLeft=6;rounded=1;" vertex="1" parent="1qNEc1VxTbAyUS8kpAam-195">
          <mxGeometry x="140" width="210" height="28" as="geometry">
            <mxRectangle width="210" height="28" as="alternateBounds" />
          </mxGeometry>
        </mxCell>
        <mxCell id="1qNEc1VxTbAyUS8kpAam-199" value="AccountTransaction" style="shape=table;startSize=30;container=1;collapsible=1;childLayout=tableLayout;fixedRows=1;rowLines=0;fontStyle=1;align=center;resizeLast=1;swimlaneFillColor=default;rounded=1;fillColor=light-dark(#7EA6E0,var(--ge-dark-color, #121212));" vertex="1" parent="1">
          <mxGeometry x="520" y="-136" width="370" height="176" as="geometry" />
        </mxCell>
        <mxCell id="1qNEc1VxTbAyUS8kpAam-200" value="" style="shape=partialRectangle;collapsible=0;dropTarget=0;pointerEvents=0;fillColor=none;points=[[0,0.5],[1,0.5]];portConstraint=eastwest;top=0;left=0;right=0;bottom=1;rounded=1;" vertex="1" parent="1qNEc1VxTbAyUS8kpAam-199">
          <mxGeometry y="30" width="370" height="30" as="geometry" />
        </mxCell>
        <mxCell id="1qNEc1VxTbAyUS8kpAam-201" value="PK   " style="shape=partialRectangle;overflow=hidden;connectable=0;fillColor=none;top=0;left=0;bottom=0;right=0;fontStyle=1;rounded=1;" vertex="1" parent="1qNEc1VxTbAyUS8kpAam-200">
          <mxGeometry width="35.75" height="30" as="geometry">
            <mxRectangle width="35.75" height="30" as="alternateBounds" />
          </mxGeometry>
        </mxCell>
        <mxCell id="1qNEc1VxTbAyUS8kpAam-202" value="TransactionID" style="shape=partialRectangle;overflow=hidden;connectable=0;fillColor=none;top=0;left=0;bottom=0;right=0;align=left;spacingLeft=6;fontStyle=5;rounded=1;" vertex="1" parent="1qNEc1VxTbAyUS8kpAam-200">
          <mxGeometry x="35.75" width="114.25" height="30" as="geometry">
            <mxRectangle width="114.25" height="30" as="alternateBounds" />
          </mxGeometry>
        </mxCell>
        <mxCell id="1qNEc1VxTbAyUS8kpAam-203" value="INT IDENTITY (1,1)" style="shape=partialRectangle;overflow=hidden;connectable=0;fillColor=none;top=0;left=0;bottom=0;right=0;align=left;spacingLeft=6;fontStyle=5;rounded=1;" vertex="1" parent="1qNEc1VxTbAyUS8kpAam-200">
          <mxGeometry x="150" width="220" height="30" as="geometry">
            <mxRectangle width="220" height="30" as="alternateBounds" />
          </mxGeometry>
        </mxCell>
        <mxCell id="1qNEc1VxTbAyUS8kpAam-204" value="" style="shape=partialRectangle;collapsible=0;dropTarget=0;pointerEvents=0;fillColor=none;points=[[0,0.5],[1,0.5]];portConstraint=eastwest;top=0;left=0;right=0;bottom=0;rounded=1;" vertex="1" parent="1qNEc1VxTbAyUS8kpAam-199">
          <mxGeometry y="60" width="370" height="27" as="geometry" />
        </mxCell>
        <mxCell id="1qNEc1VxTbAyUS8kpAam-205" value="FK" style="shape=partialRectangle;overflow=hidden;connectable=0;fillColor=none;top=0;left=0;bottom=0;right=0;rounded=1;" vertex="1" parent="1qNEc1VxTbAyUS8kpAam-204">
          <mxGeometry width="35.75" height="27" as="geometry">
            <mxRectangle width="35.75" height="27" as="alternateBounds" />
          </mxGeometry>
        </mxCell>
        <mxCell id="1qNEc1VxTbAyUS8kpAam-206" value="AccountID" style="shape=partialRectangle;overflow=hidden;connectable=0;fillColor=none;top=0;left=0;bottom=0;right=0;align=left;spacingLeft=6;rounded=1;" vertex="1" parent="1qNEc1VxTbAyUS8kpAam-204">
          <mxGeometry x="35.75" width="114.25" height="27" as="geometry">
            <mxRectangle width="114.25" height="27" as="alternateBounds" />
          </mxGeometry>
        </mxCell>
        <mxCell id="1qNEc1VxTbAyUS8kpAam-207" value="INT" style="shape=partialRectangle;overflow=hidden;connectable=0;fillColor=none;top=0;left=0;bottom=0;right=0;align=left;spacingLeft=6;rounded=1;" vertex="1" parent="1qNEc1VxTbAyUS8kpAam-204">
          <mxGeometry x="150" width="220" height="27" as="geometry">
            <mxRectangle width="220" height="27" as="alternateBounds" />
          </mxGeometry>
        </mxCell>
        <mxCell id="1qNEc1VxTbAyUS8kpAam-208" style="shape=partialRectangle;collapsible=0;dropTarget=0;pointerEvents=0;fillColor=none;points=[[0,0.5],[1,0.5]];portConstraint=eastwest;top=0;left=0;right=0;bottom=0;rounded=1;" vertex="1" parent="1qNEc1VxTbAyUS8kpAam-199">
          <mxGeometry y="87" width="370" height="28" as="geometry" />
        </mxCell>
        <mxCell id="1qNEc1VxTbAyUS8kpAam-209" style="shape=partialRectangle;overflow=hidden;connectable=0;fillColor=none;top=0;left=0;bottom=0;right=0;rounded=1;" vertex="1" parent="1qNEc1VxTbAyUS8kpAam-208">
          <mxGeometry width="35.75" height="28" as="geometry">
            <mxRectangle width="35.75" height="28" as="alternateBounds" />
          </mxGeometry>
        </mxCell>
        <mxCell id="1qNEc1VxTbAyUS8kpAam-210" value="TransactionDate" style="shape=partialRectangle;overflow=hidden;connectable=0;fillColor=none;top=0;left=0;bottom=0;right=0;align=left;spacingLeft=6;rounded=1;" vertex="1" parent="1qNEc1VxTbAyUS8kpAam-208">
          <mxGeometry x="35.75" width="114.25" height="28" as="geometry">
            <mxRectangle width="114.25" height="28" as="alternateBounds" />
          </mxGeometry>
        </mxCell>
        <mxCell id="1qNEc1VxTbAyUS8kpAam-211" value="DATETIME DEFAULT GETDATE()" style="shape=partialRectangle;overflow=hidden;connectable=0;fillColor=none;top=0;left=0;bottom=0;right=0;align=left;spacingLeft=6;rounded=1;" vertex="1" parent="1qNEc1VxTbAyUS8kpAam-208">
          <mxGeometry x="150" width="220" height="28" as="geometry">
            <mxRectangle width="220" height="28" as="alternateBounds" />
          </mxGeometry>
        </mxCell>
        <mxCell id="1qNEc1VxTbAyUS8kpAam-212" style="shape=partialRectangle;collapsible=0;dropTarget=0;pointerEvents=0;fillColor=none;points=[[0,0.5],[1,0.5]];portConstraint=eastwest;top=0;left=0;right=0;bottom=0;rounded=1;" vertex="1" parent="1qNEc1VxTbAyUS8kpAam-199">
          <mxGeometry y="115" width="370" height="28" as="geometry" />
        </mxCell>
        <mxCell id="1qNEc1VxTbAyUS8kpAam-213" style="shape=partialRectangle;overflow=hidden;connectable=0;fillColor=none;top=0;left=0;bottom=0;right=0;rounded=1;" vertex="1" parent="1qNEc1VxTbAyUS8kpAam-212">
          <mxGeometry width="35.75" height="28" as="geometry">
            <mxRectangle width="35.75" height="28" as="alternateBounds" />
          </mxGeometry>
        </mxCell>
        <mxCell id="1qNEc1VxTbAyUS8kpAam-214" value="TransactionType" style="shape=partialRectangle;overflow=hidden;connectable=0;fillColor=none;top=0;left=0;bottom=0;right=0;align=left;spacingLeft=6;rounded=1;" vertex="1" parent="1qNEc1VxTbAyUS8kpAam-212">
          <mxGeometry x="35.75" width="114.25" height="28" as="geometry">
            <mxRectangle width="114.25" height="28" as="alternateBounds" />
          </mxGeometry>
        </mxCell>
        <mxCell id="1qNEc1VxTbAyUS8kpAam-215" value="NVARCHAR(50) NOT NULL" style="shape=partialRectangle;overflow=hidden;connectable=0;fillColor=none;top=0;left=0;bottom=0;right=0;align=left;spacingLeft=6;rounded=1;" vertex="1" parent="1qNEc1VxTbAyUS8kpAam-212">
          <mxGeometry x="150" width="220" height="28" as="geometry">
            <mxRectangle width="220" height="28" as="alternateBounds" />
          </mxGeometry>
        </mxCell>
        <mxCell id="1qNEc1VxTbAyUS8kpAam-216" style="shape=partialRectangle;collapsible=0;dropTarget=0;pointerEvents=0;fillColor=none;points=[[0,0.5],[1,0.5]];portConstraint=eastwest;top=0;left=0;right=0;bottom=0;rounded=1;" vertex="1" parent="1qNEc1VxTbAyUS8kpAam-199">
          <mxGeometry y="143" width="370" height="28" as="geometry" />
        </mxCell>
        <mxCell id="1qNEc1VxTbAyUS8kpAam-217" style="shape=partialRectangle;overflow=hidden;connectable=0;fillColor=none;top=0;left=0;bottom=0;right=0;rounded=1;" vertex="1" parent="1qNEc1VxTbAyUS8kpAam-216">
          <mxGeometry width="35.75" height="28" as="geometry">
            <mxRectangle width="35.75" height="28" as="alternateBounds" />
          </mxGeometry>
        </mxCell>
        <mxCell id="1qNEc1VxTbAyUS8kpAam-218" value="Amount" style="shape=partialRectangle;overflow=hidden;connectable=0;fillColor=none;top=0;left=0;bottom=0;right=0;align=left;spacingLeft=6;rounded=1;" vertex="1" parent="1qNEc1VxTbAyUS8kpAam-216">
          <mxGeometry x="35.75" width="114.25" height="28" as="geometry">
            <mxRectangle width="114.25" height="28" as="alternateBounds" />
          </mxGeometry>
        </mxCell>
        <mxCell id="1qNEc1VxTbAyUS8kpAam-219" value="DECIMAL (18,2) NOT NULL" style="shape=partialRectangle;overflow=hidden;connectable=0;fillColor=none;top=0;left=0;bottom=0;right=0;align=left;spacingLeft=6;rounded=1;" vertex="1" parent="1qNEc1VxTbAyUS8kpAam-216">
          <mxGeometry x="150" width="220" height="28" as="geometry">
            <mxRectangle width="220" height="28" as="alternateBounds" />
          </mxGeometry>
        </mxCell>
        <mxCell id="1qNEc1VxTbAyUS8kpAam-220" value="ServiceRequests" style="shape=table;startSize=30;container=1;collapsible=1;childLayout=tableLayout;fixedRows=1;rowLines=0;fontStyle=1;align=center;resizeLast=1;swimlaneFillColor=default;rounded=1;fillColor=light-dark(#7EA6E0,var(--ge-dark-color, #121212));" vertex="1" parent="1">
          <mxGeometry x="990" y="166" width="370" height="174" as="geometry" />
        </mxCell>
        <mxCell id="1qNEc1VxTbAyUS8kpAam-221" value="" style="shape=partialRectangle;collapsible=0;dropTarget=0;pointerEvents=0;fillColor=none;points=[[0,0.5],[1,0.5]];portConstraint=eastwest;top=0;left=0;right=0;bottom=1;rounded=1;" vertex="1" parent="1qNEc1VxTbAyUS8kpAam-220">
          <mxGeometry y="30" width="370" height="30" as="geometry" />
        </mxCell>
        <mxCell id="1qNEc1VxTbAyUS8kpAam-222" value="PK   " style="shape=partialRectangle;overflow=hidden;connectable=0;fillColor=none;top=0;left=0;bottom=0;right=0;fontStyle=1;rounded=1;" vertex="1" parent="1qNEc1VxTbAyUS8kpAam-221">
          <mxGeometry width="35.75" height="30" as="geometry">
            <mxRectangle width="35.75" height="30" as="alternateBounds" />
          </mxGeometry>
        </mxCell>
        <mxCell id="1qNEc1VxTbAyUS8kpAam-223" value="RequestID" style="shape=partialRectangle;overflow=hidden;connectable=0;fillColor=none;top=0;left=0;bottom=0;right=0;align=left;spacingLeft=6;fontStyle=5;rounded=1;" vertex="1" parent="1qNEc1VxTbAyUS8kpAam-221">
          <mxGeometry x="35.75" width="94.25" height="30" as="geometry">
            <mxRectangle width="94.25" height="30" as="alternateBounds" />
          </mxGeometry>
        </mxCell>
        <mxCell id="1qNEc1VxTbAyUS8kpAam-224" value="INT IDENTITY (1,1)" style="shape=partialRectangle;overflow=hidden;connectable=0;fillColor=none;top=0;left=0;bottom=0;right=0;align=left;spacingLeft=6;fontStyle=5;rounded=1;" vertex="1" parent="1qNEc1VxTbAyUS8kpAam-221">
          <mxGeometry x="130" width="240" height="30" as="geometry">
            <mxRectangle width="240" height="30" as="alternateBounds" />
          </mxGeometry>
        </mxCell>
        <mxCell id="1qNEc1VxTbAyUS8kpAam-225" value="" style="shape=partialRectangle;collapsible=0;dropTarget=0;pointerEvents=0;fillColor=none;points=[[0,0.5],[1,0.5]];portConstraint=eastwest;top=0;left=0;right=0;bottom=0;rounded=1;" vertex="1" parent="1qNEc1VxTbAyUS8kpAam-220">
          <mxGeometry y="60" width="370" height="27" as="geometry" />
        </mxCell>
        <mxCell id="1qNEc1VxTbAyUS8kpAam-226" value="FK" style="shape=partialRectangle;overflow=hidden;connectable=0;fillColor=none;top=0;left=0;bottom=0;right=0;rounded=1;" vertex="1" parent="1qNEc1VxTbAyUS8kpAam-225">
          <mxGeometry width="35.75" height="27" as="geometry">
            <mxRectangle width="35.75" height="27" as="alternateBounds" />
          </mxGeometry>
        </mxCell>
        <mxCell id="1qNEc1VxTbAyUS8kpAam-227" value="CustomerID" style="shape=partialRectangle;overflow=hidden;connectable=0;fillColor=none;top=0;left=0;bottom=0;right=0;align=left;spacingLeft=6;rounded=1;" vertex="1" parent="1qNEc1VxTbAyUS8kpAam-225">
          <mxGeometry x="35.75" width="94.25" height="27" as="geometry">
            <mxRectangle width="94.25" height="27" as="alternateBounds" />
          </mxGeometry>
        </mxCell>
        <mxCell id="1qNEc1VxTbAyUS8kpAam-228" value="INT" style="shape=partialRectangle;overflow=hidden;connectable=0;fillColor=none;top=0;left=0;bottom=0;right=0;align=left;spacingLeft=6;rounded=1;" vertex="1" parent="1qNEc1VxTbAyUS8kpAam-225">
          <mxGeometry x="130" width="240" height="27" as="geometry">
            <mxRectangle width="240" height="27" as="alternateBounds" />
          </mxGeometry>
        </mxCell>
        <mxCell id="1qNEc1VxTbAyUS8kpAam-229" style="shape=partialRectangle;collapsible=0;dropTarget=0;pointerEvents=0;fillColor=none;points=[[0,0.5],[1,0.5]];portConstraint=eastwest;top=0;left=0;right=0;bottom=0;rounded=1;" vertex="1" parent="1qNEc1VxTbAyUS8kpAam-220">
          <mxGeometry y="87" width="370" height="28" as="geometry" />
        </mxCell>
        <mxCell id="1qNEc1VxTbAyUS8kpAam-230" style="shape=partialRectangle;overflow=hidden;connectable=0;fillColor=none;top=0;left=0;bottom=0;right=0;rounded=1;" vertex="1" parent="1qNEc1VxTbAyUS8kpAam-229">
          <mxGeometry width="35.75" height="28" as="geometry">
            <mxRectangle width="35.75" height="28" as="alternateBounds" />
          </mxGeometry>
        </mxCell>
        <mxCell id="1qNEc1VxTbAyUS8kpAam-231" value="RequestType" style="shape=partialRectangle;overflow=hidden;connectable=0;fillColor=none;top=0;left=0;bottom=0;right=0;align=left;spacingLeft=6;rounded=1;" vertex="1" parent="1qNEc1VxTbAyUS8kpAam-229">
          <mxGeometry x="35.75" width="94.25" height="28" as="geometry">
            <mxRectangle width="94.25" height="28" as="alternateBounds" />
          </mxGeometry>
        </mxCell>
        <mxCell id="1qNEc1VxTbAyUS8kpAam-232" value="NVARCHAR(100) NOT NULL" style="shape=partialRectangle;overflow=hidden;connectable=0;fillColor=none;top=0;left=0;bottom=0;right=0;align=left;spacingLeft=6;rounded=1;" vertex="1" parent="1qNEc1VxTbAyUS8kpAam-229">
          <mxGeometry x="130" width="240" height="28" as="geometry">
            <mxRectangle width="240" height="28" as="alternateBounds" />
          </mxGeometry>
        </mxCell>
        <mxCell id="1qNEc1VxTbAyUS8kpAam-233" style="shape=partialRectangle;collapsible=0;dropTarget=0;pointerEvents=0;fillColor=none;points=[[0,0.5],[1,0.5]];portConstraint=eastwest;top=0;left=0;right=0;bottom=0;rounded=1;" vertex="1" parent="1qNEc1VxTbAyUS8kpAam-220">
          <mxGeometry y="115" width="370" height="28" as="geometry" />
        </mxCell>
        <mxCell id="1qNEc1VxTbAyUS8kpAam-234" style="shape=partialRectangle;overflow=hidden;connectable=0;fillColor=none;top=0;left=0;bottom=0;right=0;rounded=1;" vertex="1" parent="1qNEc1VxTbAyUS8kpAam-233">
          <mxGeometry width="35.75" height="28" as="geometry">
            <mxRectangle width="35.75" height="28" as="alternateBounds" />
          </mxGeometry>
        </mxCell>
        <mxCell id="1qNEc1VxTbAyUS8kpAam-235" value="RequestStatus" style="shape=partialRectangle;overflow=hidden;connectable=0;fillColor=none;top=0;left=0;bottom=0;right=0;align=left;spacingLeft=6;rounded=1;" vertex="1" parent="1qNEc1VxTbAyUS8kpAam-233">
          <mxGeometry x="35.75" width="94.25" height="28" as="geometry">
            <mxRectangle width="94.25" height="28" as="alternateBounds" />
          </mxGeometry>
        </mxCell>
        <mxCell id="1qNEc1VxTbAyUS8kpAam-236" value="NVARCHAR(50) NOT NULL" style="shape=partialRectangle;overflow=hidden;connectable=0;fillColor=none;top=0;left=0;bottom=0;right=0;align=left;spacingLeft=6;rounded=1;" vertex="1" parent="1qNEc1VxTbAyUS8kpAam-233">
          <mxGeometry x="130" width="240" height="28" as="geometry">
            <mxRectangle width="240" height="28" as="alternateBounds" />
          </mxGeometry>
        </mxCell>
        <mxCell id="1qNEc1VxTbAyUS8kpAam-237" style="shape=partialRectangle;collapsible=0;dropTarget=0;pointerEvents=0;fillColor=none;points=[[0,0.5],[1,0.5]];portConstraint=eastwest;top=0;left=0;right=0;bottom=0;rounded=1;" vertex="1" parent="1qNEc1VxTbAyUS8kpAam-220">
          <mxGeometry y="143" width="370" height="28" as="geometry" />
        </mxCell>
        <mxCell id="1qNEc1VxTbAyUS8kpAam-238" style="shape=partialRectangle;overflow=hidden;connectable=0;fillColor=none;top=0;left=0;bottom=0;right=0;rounded=1;" vertex="1" parent="1qNEc1VxTbAyUS8kpAam-237">
          <mxGeometry width="35.75" height="28" as="geometry">
            <mxRectangle width="35.75" height="28" as="alternateBounds" />
          </mxGeometry>
        </mxCell>
        <mxCell id="1qNEc1VxTbAyUS8kpAam-239" value="RequestDate" style="shape=partialRectangle;overflow=hidden;connectable=0;fillColor=none;top=0;left=0;bottom=0;right=0;align=left;spacingLeft=6;rounded=1;" vertex="1" parent="1qNEc1VxTbAyUS8kpAam-237">
          <mxGeometry x="35.75" width="94.25" height="28" as="geometry">
            <mxRectangle width="94.25" height="28" as="alternateBounds" />
          </mxGeometry>
        </mxCell>
        <mxCell id="1qNEc1VxTbAyUS8kpAam-240" value="DATETIME DEFAULT GETDATE()" style="shape=partialRectangle;overflow=hidden;connectable=0;fillColor=none;top=0;left=0;bottom=0;right=0;align=left;spacingLeft=6;rounded=1;" vertex="1" parent="1qNEc1VxTbAyUS8kpAam-237">
          <mxGeometry x="130" width="240" height="28" as="geometry">
            <mxRectangle width="240" height="28" as="alternateBounds" />
          </mxGeometry>
        </mxCell>
        <mxCell id="1qNEc1VxTbAyUS8kpAam-241" value="FeeCharges" style="shape=table;startSize=30;container=1;collapsible=1;childLayout=tableLayout;fixedRows=1;rowLines=0;fontStyle=1;align=center;resizeLast=1;swimlaneFillColor=default;rounded=1;fillColor=light-dark(#7EA6E0,var(--ge-dark-color, #121212));" vertex="1" parent="1">
          <mxGeometry x="990" y="-106" width="330" height="172" as="geometry" />
        </mxCell>
        <mxCell id="1qNEc1VxTbAyUS8kpAam-242" value="" style="shape=partialRectangle;collapsible=0;dropTarget=0;pointerEvents=0;fillColor=none;points=[[0,0.5],[1,0.5]];portConstraint=eastwest;top=0;left=0;right=0;bottom=1;rounded=1;" vertex="1" parent="1qNEc1VxTbAyUS8kpAam-241">
          <mxGeometry y="30" width="330" height="30" as="geometry" />
        </mxCell>
        <mxCell id="1qNEc1VxTbAyUS8kpAam-243" value="PK   " style="shape=partialRectangle;overflow=hidden;connectable=0;fillColor=none;top=0;left=0;bottom=0;right=0;fontStyle=1;rounded=1;" vertex="1" parent="1qNEc1VxTbAyUS8kpAam-242">
          <mxGeometry width="35.75" height="30" as="geometry">
            <mxRectangle width="35.75" height="30" as="alternateBounds" />
          </mxGeometry>
        </mxCell>
        <mxCell id="1qNEc1VxTbAyUS8kpAam-244" value="FeeID" style="shape=partialRectangle;overflow=hidden;connectable=0;fillColor=none;top=0;left=0;bottom=0;right=0;align=left;spacingLeft=6;fontStyle=5;rounded=1;" vertex="1" parent="1qNEc1VxTbAyUS8kpAam-242">
          <mxGeometry x="35.75" width="94.25" height="30" as="geometry">
            <mxRectangle width="94.25" height="30" as="alternateBounds" />
          </mxGeometry>
        </mxCell>
        <mxCell id="1qNEc1VxTbAyUS8kpAam-245" value="INT IDENTITY (1,1)" style="shape=partialRectangle;overflow=hidden;connectable=0;fillColor=none;top=0;left=0;bottom=0;right=0;align=left;spacingLeft=6;fontStyle=5;rounded=1;" vertex="1" parent="1qNEc1VxTbAyUS8kpAam-242">
          <mxGeometry x="130" width="200" height="30" as="geometry">
            <mxRectangle width="200" height="30" as="alternateBounds" />
          </mxGeometry>
        </mxCell>
        <mxCell id="1qNEc1VxTbAyUS8kpAam-246" value="" style="shape=partialRectangle;collapsible=0;dropTarget=0;pointerEvents=0;fillColor=none;points=[[0,0.5],[1,0.5]];portConstraint=eastwest;top=0;left=0;right=0;bottom=0;rounded=1;" vertex="1" parent="1qNEc1VxTbAyUS8kpAam-241">
          <mxGeometry y="60" width="330" height="27" as="geometry" />
        </mxCell>
        <mxCell id="1qNEc1VxTbAyUS8kpAam-247" value="FK" style="shape=partialRectangle;overflow=hidden;connectable=0;fillColor=none;top=0;left=0;bottom=0;right=0;rounded=1;" vertex="1" parent="1qNEc1VxTbAyUS8kpAam-246">
          <mxGeometry width="35.75" height="27" as="geometry">
            <mxRectangle width="35.75" height="27" as="alternateBounds" />
          </mxGeometry>
        </mxCell>
        <mxCell id="1qNEc1VxTbAyUS8kpAam-248" value="AccountID" style="shape=partialRectangle;overflow=hidden;connectable=0;fillColor=none;top=0;left=0;bottom=0;right=0;align=left;spacingLeft=6;rounded=1;" vertex="1" parent="1qNEc1VxTbAyUS8kpAam-246">
          <mxGeometry x="35.75" width="94.25" height="27" as="geometry">
            <mxRectangle width="94.25" height="27" as="alternateBounds" />
          </mxGeometry>
        </mxCell>
        <mxCell id="1qNEc1VxTbAyUS8kpAam-249" value="INT" style="shape=partialRectangle;overflow=hidden;connectable=0;fillColor=none;top=0;left=0;bottom=0;right=0;align=left;spacingLeft=6;rounded=1;" vertex="1" parent="1qNEc1VxTbAyUS8kpAam-246">
          <mxGeometry x="130" width="200" height="27" as="geometry">
            <mxRectangle width="200" height="27" as="alternateBounds" />
          </mxGeometry>
        </mxCell>
        <mxCell id="1qNEc1VxTbAyUS8kpAam-250" style="shape=partialRectangle;collapsible=0;dropTarget=0;pointerEvents=0;fillColor=none;points=[[0,0.5],[1,0.5]];portConstraint=eastwest;top=0;left=0;right=0;bottom=0;rounded=1;" vertex="1" parent="1qNEc1VxTbAyUS8kpAam-241">
          <mxGeometry y="87" width="330" height="28" as="geometry" />
        </mxCell>
        <mxCell id="1qNEc1VxTbAyUS8kpAam-251" style="shape=partialRectangle;overflow=hidden;connectable=0;fillColor=none;top=0;left=0;bottom=0;right=0;rounded=1;" vertex="1" parent="1qNEc1VxTbAyUS8kpAam-250">
          <mxGeometry width="35.75" height="28" as="geometry">
            <mxRectangle width="35.75" height="28" as="alternateBounds" />
          </mxGeometry>
        </mxCell>
        <mxCell id="1qNEc1VxTbAyUS8kpAam-252" value="FeeType" style="shape=partialRectangle;overflow=hidden;connectable=0;fillColor=none;top=0;left=0;bottom=0;right=0;align=left;spacingLeft=6;rounded=1;" vertex="1" parent="1qNEc1VxTbAyUS8kpAam-250">
          <mxGeometry x="35.75" width="94.25" height="28" as="geometry">
            <mxRectangle width="94.25" height="28" as="alternateBounds" />
          </mxGeometry>
        </mxCell>
        <mxCell id="1qNEc1VxTbAyUS8kpAam-253" value="NVARCHAR (100) NOT NULL" style="shape=partialRectangle;overflow=hidden;connectable=0;fillColor=none;top=0;left=0;bottom=0;right=0;align=left;spacingLeft=6;rounded=1;" vertex="1" parent="1qNEc1VxTbAyUS8kpAam-250">
          <mxGeometry x="130" width="200" height="28" as="geometry">
            <mxRectangle width="200" height="28" as="alternateBounds" />
          </mxGeometry>
        </mxCell>
        <mxCell id="1qNEc1VxTbAyUS8kpAam-254" style="shape=partialRectangle;collapsible=0;dropTarget=0;pointerEvents=0;fillColor=none;points=[[0,0.5],[1,0.5]];portConstraint=eastwest;top=0;left=0;right=0;bottom=0;rounded=1;" vertex="1" parent="1qNEc1VxTbAyUS8kpAam-241">
          <mxGeometry y="115" width="330" height="28" as="geometry" />
        </mxCell>
        <mxCell id="1qNEc1VxTbAyUS8kpAam-255" style="shape=partialRectangle;overflow=hidden;connectable=0;fillColor=none;top=0;left=0;bottom=0;right=0;rounded=1;" vertex="1" parent="1qNEc1VxTbAyUS8kpAam-254">
          <mxGeometry width="35.75" height="28" as="geometry">
            <mxRectangle width="35.75" height="28" as="alternateBounds" />
          </mxGeometry>
        </mxCell>
        <mxCell id="1qNEc1VxTbAyUS8kpAam-256" value="FeeAmount" style="shape=partialRectangle;overflow=hidden;connectable=0;fillColor=none;top=0;left=0;bottom=0;right=0;align=left;spacingLeft=6;rounded=1;" vertex="1" parent="1qNEc1VxTbAyUS8kpAam-254">
          <mxGeometry x="35.75" width="94.25" height="28" as="geometry">
            <mxRectangle width="94.25" height="28" as="alternateBounds" />
          </mxGeometry>
        </mxCell>
        <mxCell id="1qNEc1VxTbAyUS8kpAam-257" value="DECIMAL (18,2) NOT NULL" style="shape=partialRectangle;overflow=hidden;connectable=0;fillColor=none;top=0;left=0;bottom=0;right=0;align=left;spacingLeft=6;rounded=1;" vertex="1" parent="1qNEc1VxTbAyUS8kpAam-254">
          <mxGeometry x="130" width="200" height="28" as="geometry">
            <mxRectangle width="200" height="28" as="alternateBounds" />
          </mxGeometry>
        </mxCell>
        <mxCell id="1qNEc1VxTbAyUS8kpAam-258" style="shape=partialRectangle;collapsible=0;dropTarget=0;pointerEvents=0;fillColor=none;points=[[0,0.5],[1,0.5]];portConstraint=eastwest;top=0;left=0;right=0;bottom=0;rounded=1;" vertex="1" parent="1qNEc1VxTbAyUS8kpAam-241">
          <mxGeometry y="143" width="330" height="28" as="geometry" />
        </mxCell>
        <mxCell id="1qNEc1VxTbAyUS8kpAam-259" style="shape=partialRectangle;overflow=hidden;connectable=0;fillColor=none;top=0;left=0;bottom=0;right=0;rounded=1;" vertex="1" parent="1qNEc1VxTbAyUS8kpAam-258">
          <mxGeometry width="35.75" height="28" as="geometry">
            <mxRectangle width="35.75" height="28" as="alternateBounds" />
          </mxGeometry>
        </mxCell>
        <mxCell id="1qNEc1VxTbAyUS8kpAam-260" value="ChargedDate" style="shape=partialRectangle;overflow=hidden;connectable=0;fillColor=none;top=0;left=0;bottom=0;right=0;align=left;spacingLeft=6;rounded=1;" vertex="1" parent="1qNEc1VxTbAyUS8kpAam-258">
          <mxGeometry x="35.75" width="94.25" height="28" as="geometry">
            <mxRectangle width="94.25" height="28" as="alternateBounds" />
          </mxGeometry>
        </mxCell>
        <mxCell id="1qNEc1VxTbAyUS8kpAam-261" value="DATE DEFAULT GETDATE()" style="shape=partialRectangle;overflow=hidden;connectable=0;fillColor=none;top=0;left=0;bottom=0;right=0;align=left;spacingLeft=6;rounded=1;" vertex="1" parent="1qNEc1VxTbAyUS8kpAam-258">
          <mxGeometry x="130" width="200" height="28" as="geometry">
            <mxRectangle width="200" height="28" as="alternateBounds" />
          </mxGeometry>
        </mxCell>
        <mxCell id="1qNEc1VxTbAyUS8kpAam-262" value="InterestRate" style="shape=table;startSize=30;container=1;collapsible=1;childLayout=tableLayout;fixedRows=1;rowLines=0;fontStyle=1;align=center;resizeLast=1;swimlaneFillColor=default;rounded=1;fillColor=light-dark(#7EA6E0,var(--ge-dark-color, #121212));" vertex="1" parent="1">
          <mxGeometry x="510" y="370" width="290" height="119" as="geometry" />
        </mxCell>
        <mxCell id="1qNEc1VxTbAyUS8kpAam-263" value="" style="shape=partialRectangle;collapsible=0;dropTarget=0;pointerEvents=0;fillColor=none;points=[[0,0.5],[1,0.5]];portConstraint=eastwest;top=0;left=0;right=0;bottom=1;rounded=1;" vertex="1" parent="1qNEc1VxTbAyUS8kpAam-262">
          <mxGeometry y="30" width="290" height="30" as="geometry" />
        </mxCell>
        <mxCell id="1qNEc1VxTbAyUS8kpAam-264" value="PK   " style="shape=partialRectangle;overflow=hidden;connectable=0;fillColor=none;top=0;left=0;bottom=0;right=0;fontStyle=1;rounded=1;" vertex="1" parent="1qNEc1VxTbAyUS8kpAam-263">
          <mxGeometry width="35.75" height="30" as="geometry">
            <mxRectangle width="35.75" height="30" as="alternateBounds" />
          </mxGeometry>
        </mxCell>
        <mxCell id="1qNEc1VxTbAyUS8kpAam-265" value="RateID" style="shape=partialRectangle;overflow=hidden;connectable=0;fillColor=none;top=0;left=0;bottom=0;right=0;align=left;spacingLeft=6;fontStyle=5;rounded=1;" vertex="1" parent="1qNEc1VxTbAyUS8kpAam-263">
          <mxGeometry x="35.75" width="84.25" height="30" as="geometry">
            <mxRectangle width="84.25" height="30" as="alternateBounds" />
          </mxGeometry>
        </mxCell>
        <mxCell id="1qNEc1VxTbAyUS8kpAam-266" value="INT IDENTITY (1,1)" style="shape=partialRectangle;overflow=hidden;connectable=0;fillColor=none;top=0;left=0;bottom=0;right=0;align=left;spacingLeft=6;fontStyle=5;rounded=1;" vertex="1" parent="1qNEc1VxTbAyUS8kpAam-263">
          <mxGeometry x="120" width="170" height="30" as="geometry">
            <mxRectangle width="170" height="30" as="alternateBounds" />
          </mxGeometry>
        </mxCell>
        <mxCell id="1qNEc1VxTbAyUS8kpAam-267" value="" style="shape=partialRectangle;collapsible=0;dropTarget=0;pointerEvents=0;fillColor=none;points=[[0,0.5],[1,0.5]];portConstraint=eastwest;top=0;left=0;right=0;bottom=0;rounded=1;" vertex="1" parent="1qNEc1VxTbAyUS8kpAam-262">
          <mxGeometry y="60" width="290" height="27" as="geometry" />
        </mxCell>
        <mxCell id="1qNEc1VxTbAyUS8kpAam-268" value="" style="shape=partialRectangle;overflow=hidden;connectable=0;fillColor=none;top=0;left=0;bottom=0;right=0;rounded=1;" vertex="1" parent="1qNEc1VxTbAyUS8kpAam-267">
          <mxGeometry width="35.75" height="27" as="geometry">
            <mxRectangle width="35.75" height="27" as="alternateBounds" />
          </mxGeometry>
        </mxCell>
        <mxCell id="1qNEc1VxTbAyUS8kpAam-269" value="InterestRate" style="shape=partialRectangle;overflow=hidden;connectable=0;fillColor=none;top=0;left=0;bottom=0;right=0;align=left;spacingLeft=6;rounded=1;" vertex="1" parent="1qNEc1VxTbAyUS8kpAam-267">
          <mxGeometry x="35.75" width="84.25" height="27" as="geometry">
            <mxRectangle width="84.25" height="27" as="alternateBounds" />
          </mxGeometry>
        </mxCell>
        <mxCell id="1qNEc1VxTbAyUS8kpAam-270" value="DECIMAL (5,2) NOT NULL" style="shape=partialRectangle;overflow=hidden;connectable=0;fillColor=none;top=0;left=0;bottom=0;right=0;align=left;spacingLeft=6;rounded=1;" vertex="1" parent="1qNEc1VxTbAyUS8kpAam-267">
          <mxGeometry x="120" width="170" height="27" as="geometry">
            <mxRectangle width="170" height="27" as="alternateBounds" />
          </mxGeometry>
        </mxCell>
        <mxCell id="1qNEc1VxTbAyUS8kpAam-271" value="" style="shape=partialRectangle;collapsible=0;dropTarget=0;pointerEvents=0;fillColor=none;points=[[0,0.5],[1,0.5]];portConstraint=eastwest;top=0;left=0;right=0;bottom=0;rounded=1;" vertex="1" parent="1qNEc1VxTbAyUS8kpAam-262">
          <mxGeometry y="87" width="290" height="27" as="geometry" />
        </mxCell>
        <mxCell id="1qNEc1VxTbAyUS8kpAam-272" value="" style="shape=partialRectangle;overflow=hidden;connectable=0;fillColor=none;top=0;left=0;bottom=0;right=0;rounded=1;" vertex="1" parent="1qNEc1VxTbAyUS8kpAam-271">
          <mxGeometry width="35.75" height="27" as="geometry">
            <mxRectangle width="35.75" height="27" as="alternateBounds" />
          </mxGeometry>
        </mxCell>
        <mxCell id="1qNEc1VxTbAyUS8kpAam-273" value="IsVariable" style="shape=partialRectangle;overflow=hidden;connectable=0;fillColor=none;top=0;left=0;bottom=0;right=0;align=left;spacingLeft=6;rounded=1;" vertex="1" parent="1qNEc1VxTbAyUS8kpAam-271">
          <mxGeometry x="35.75" width="84.25" height="27" as="geometry">
            <mxRectangle width="84.25" height="27" as="alternateBounds" />
          </mxGeometry>
        </mxCell>
        <mxCell id="1qNEc1VxTbAyUS8kpAam-274" value="BIT DEFAULT 0" style="shape=partialRectangle;overflow=hidden;connectable=0;fillColor=none;top=0;left=0;bottom=0;right=0;align=left;spacingLeft=6;rounded=1;" vertex="1" parent="1qNEc1VxTbAyUS8kpAam-271">
          <mxGeometry x="120" width="170" height="27" as="geometry">
            <mxRectangle width="170" height="27" as="alternateBounds" />
          </mxGeometry>
        </mxCell>
        <mxCell id="1qNEc1VxTbAyUS8kpAam-275" value="Customer" style="shape=table;startSize=30;container=1;collapsible=1;childLayout=tableLayout;fixedRows=1;rowLines=0;fontStyle=1;align=center;resizeLast=1;swimlaneFillColor=default;rounded=1;fillColor=light-dark(#7EA6E0,var(--ge-dark-color, #121212));" vertex="1" parent="1">
          <mxGeometry x="-870" y="470" width="290" height="232" as="geometry" />
        </mxCell>
        <mxCell id="1qNEc1VxTbAyUS8kpAam-276" value="" style="shape=partialRectangle;collapsible=0;dropTarget=0;pointerEvents=0;fillColor=none;points=[[0,0.5],[1,0.5]];portConstraint=eastwest;top=0;left=0;right=0;bottom=1;rounded=1;" vertex="1" parent="1qNEc1VxTbAyUS8kpAam-275">
          <mxGeometry y="30" width="290" height="30" as="geometry" />
        </mxCell>
        <mxCell id="1qNEc1VxTbAyUS8kpAam-277" value="PK   " style="shape=partialRectangle;overflow=hidden;connectable=0;fillColor=none;top=0;left=0;bottom=0;right=0;fontStyle=1;rounded=1;" vertex="1" parent="1qNEc1VxTbAyUS8kpAam-276">
          <mxGeometry width="35.75" height="30" as="geometry">
            <mxRectangle width="35.75" height="30" as="alternateBounds" />
          </mxGeometry>
        </mxCell>
        <mxCell id="1qNEc1VxTbAyUS8kpAam-278" value="CustomerID" style="shape=partialRectangle;overflow=hidden;connectable=0;fillColor=none;top=0;left=0;bottom=0;right=0;align=left;spacingLeft=6;fontStyle=5;rounded=1;" vertex="1" parent="1qNEc1VxTbAyUS8kpAam-276">
          <mxGeometry x="35.75" width="84.25" height="30" as="geometry">
            <mxRectangle width="84.25" height="30" as="alternateBounds" />
          </mxGeometry>
        </mxCell>
        <mxCell id="1qNEc1VxTbAyUS8kpAam-279" value="INT IDENTITY (1,1)" style="shape=partialRectangle;overflow=hidden;connectable=0;fillColor=none;top=0;left=0;bottom=0;right=0;align=left;spacingLeft=6;fontStyle=5;rounded=1;" vertex="1" parent="1qNEc1VxTbAyUS8kpAam-276">
          <mxGeometry x="120" width="170" height="30" as="geometry">
            <mxRectangle width="170" height="30" as="alternateBounds" />
          </mxGeometry>
        </mxCell>
        <mxCell id="1qNEc1VxTbAyUS8kpAam-280" value="" style="shape=partialRectangle;collapsible=0;dropTarget=0;pointerEvents=0;fillColor=none;points=[[0,0.5],[1,0.5]];portConstraint=eastwest;top=0;left=0;right=0;bottom=0;rounded=1;" vertex="1" parent="1qNEc1VxTbAyUS8kpAam-275">
          <mxGeometry y="60" width="290" height="27" as="geometry" />
        </mxCell>
        <mxCell id="1qNEc1VxTbAyUS8kpAam-281" value="FK" style="shape=partialRectangle;overflow=hidden;connectable=0;fillColor=none;top=0;left=0;bottom=0;right=0;rounded=1;" vertex="1" parent="1qNEc1VxTbAyUS8kpAam-280">
          <mxGeometry width="35.75" height="27" as="geometry">
            <mxRectangle width="35.75" height="27" as="alternateBounds" />
          </mxGeometry>
        </mxCell>
        <mxCell id="1qNEc1VxTbAyUS8kpAam-282" value="BranchID" style="shape=partialRectangle;overflow=hidden;connectable=0;fillColor=none;top=0;left=0;bottom=0;right=0;align=left;spacingLeft=6;rounded=1;" vertex="1" parent="1qNEc1VxTbAyUS8kpAam-280">
          <mxGeometry x="35.75" width="84.25" height="27" as="geometry">
            <mxRectangle width="84.25" height="27" as="alternateBounds" />
          </mxGeometry>
        </mxCell>
        <mxCell id="1qNEc1VxTbAyUS8kpAam-283" value="INT" style="shape=partialRectangle;overflow=hidden;connectable=0;fillColor=none;top=0;left=0;bottom=0;right=0;align=left;spacingLeft=6;rounded=1;" vertex="1" parent="1qNEc1VxTbAyUS8kpAam-280">
          <mxGeometry x="120" width="170" height="27" as="geometry">
            <mxRectangle width="170" height="27" as="alternateBounds" />
          </mxGeometry>
        </mxCell>
        <mxCell id="1qNEc1VxTbAyUS8kpAam-284" style="shape=partialRectangle;collapsible=0;dropTarget=0;pointerEvents=0;fillColor=none;points=[[0,0.5],[1,0.5]];portConstraint=eastwest;top=0;left=0;right=0;bottom=0;rounded=1;" vertex="1" parent="1qNEc1VxTbAyUS8kpAam-275">
          <mxGeometry y="87" width="290" height="28" as="geometry" />
        </mxCell>
        <mxCell id="1qNEc1VxTbAyUS8kpAam-285" style="shape=partialRectangle;overflow=hidden;connectable=0;fillColor=none;top=0;left=0;bottom=0;right=0;rounded=1;" vertex="1" parent="1qNEc1VxTbAyUS8kpAam-284">
          <mxGeometry width="35.75" height="28" as="geometry">
            <mxRectangle width="35.75" height="28" as="alternateBounds" />
          </mxGeometry>
        </mxCell>
        <mxCell id="1qNEc1VxTbAyUS8kpAam-286" value="FirstName" style="shape=partialRectangle;overflow=hidden;connectable=0;fillColor=none;top=0;left=0;bottom=0;right=0;align=left;spacingLeft=6;rounded=1;" vertex="1" parent="1qNEc1VxTbAyUS8kpAam-284">
          <mxGeometry x="35.75" width="84.25" height="28" as="geometry">
            <mxRectangle width="84.25" height="28" as="alternateBounds" />
          </mxGeometry>
        </mxCell>
        <mxCell id="1qNEc1VxTbAyUS8kpAam-287" value="NVARCHAR(100) NOT NULL" style="shape=partialRectangle;overflow=hidden;connectable=0;fillColor=none;top=0;left=0;bottom=0;right=0;align=left;spacingLeft=6;rounded=1;" vertex="1" parent="1qNEc1VxTbAyUS8kpAam-284">
          <mxGeometry x="120" width="170" height="28" as="geometry">
            <mxRectangle width="170" height="28" as="alternateBounds" />
          </mxGeometry>
        </mxCell>
        <mxCell id="1qNEc1VxTbAyUS8kpAam-288" style="shape=partialRectangle;collapsible=0;dropTarget=0;pointerEvents=0;fillColor=none;points=[[0,0.5],[1,0.5]];portConstraint=eastwest;top=0;left=0;right=0;bottom=0;rounded=1;" vertex="1" parent="1qNEc1VxTbAyUS8kpAam-275">
          <mxGeometry y="115" width="290" height="28" as="geometry" />
        </mxCell>
        <mxCell id="1qNEc1VxTbAyUS8kpAam-289" style="shape=partialRectangle;overflow=hidden;connectable=0;fillColor=none;top=0;left=0;bottom=0;right=0;rounded=1;" vertex="1" parent="1qNEc1VxTbAyUS8kpAam-288">
          <mxGeometry width="35.75" height="28" as="geometry">
            <mxRectangle width="35.75" height="28" as="alternateBounds" />
          </mxGeometry>
        </mxCell>
        <mxCell id="1qNEc1VxTbAyUS8kpAam-290" value="LastName" style="shape=partialRectangle;overflow=hidden;connectable=0;fillColor=none;top=0;left=0;bottom=0;right=0;align=left;spacingLeft=6;rounded=1;" vertex="1" parent="1qNEc1VxTbAyUS8kpAam-288">
          <mxGeometry x="35.75" width="84.25" height="28" as="geometry">
            <mxRectangle width="84.25" height="28" as="alternateBounds" />
          </mxGeometry>
        </mxCell>
        <mxCell id="1qNEc1VxTbAyUS8kpAam-291" value="NVARCHAR(100) NOT NULL" style="shape=partialRectangle;overflow=hidden;connectable=0;fillColor=none;top=0;left=0;bottom=0;right=0;align=left;spacingLeft=6;rounded=1;" vertex="1" parent="1qNEc1VxTbAyUS8kpAam-288">
          <mxGeometry x="120" width="170" height="28" as="geometry">
            <mxRectangle width="170" height="28" as="alternateBounds" />
          </mxGeometry>
        </mxCell>
        <mxCell id="1qNEc1VxTbAyUS8kpAam-292" style="shape=partialRectangle;collapsible=0;dropTarget=0;pointerEvents=0;fillColor=none;points=[[0,0.5],[1,0.5]];portConstraint=eastwest;top=0;left=0;right=0;bottom=0;rounded=1;" vertex="1" parent="1qNEc1VxTbAyUS8kpAam-275">
          <mxGeometry y="143" width="290" height="28" as="geometry" />
        </mxCell>
        <mxCell id="1qNEc1VxTbAyUS8kpAam-293" style="shape=partialRectangle;overflow=hidden;connectable=0;fillColor=none;top=0;left=0;bottom=0;right=0;rounded=1;" vertex="1" parent="1qNEc1VxTbAyUS8kpAam-292">
          <mxGeometry width="35.75" height="28" as="geometry">
            <mxRectangle width="35.75" height="28" as="alternateBounds" />
          </mxGeometry>
        </mxCell>
        <mxCell id="1qNEc1VxTbAyUS8kpAam-294" value="DateOfBirth" style="shape=partialRectangle;overflow=hidden;connectable=0;fillColor=none;top=0;left=0;bottom=0;right=0;align=left;spacingLeft=6;rounded=1;" vertex="1" parent="1qNEc1VxTbAyUS8kpAam-292">
          <mxGeometry x="35.75" width="84.25" height="28" as="geometry">
            <mxRectangle width="84.25" height="28" as="alternateBounds" />
          </mxGeometry>
        </mxCell>
        <mxCell id="1qNEc1VxTbAyUS8kpAam-295" value="DATE NOT NULL" style="shape=partialRectangle;overflow=hidden;connectable=0;fillColor=none;top=0;left=0;bottom=0;right=0;align=left;spacingLeft=6;rounded=1;" vertex="1" parent="1qNEc1VxTbAyUS8kpAam-292">
          <mxGeometry x="120" width="170" height="28" as="geometry">
            <mxRectangle width="170" height="28" as="alternateBounds" />
          </mxGeometry>
        </mxCell>
        <mxCell id="1qNEc1VxTbAyUS8kpAam-296" style="shape=partialRectangle;collapsible=0;dropTarget=0;pointerEvents=0;fillColor=none;points=[[0,0.5],[1,0.5]];portConstraint=eastwest;top=0;left=0;right=0;bottom=0;rounded=1;" vertex="1" parent="1qNEc1VxTbAyUS8kpAam-275">
          <mxGeometry y="171" width="290" height="28" as="geometry" />
        </mxCell>
        <mxCell id="1qNEc1VxTbAyUS8kpAam-297" style="shape=partialRectangle;overflow=hidden;connectable=0;fillColor=none;top=0;left=0;bottom=0;right=0;rounded=1;" vertex="1" parent="1qNEc1VxTbAyUS8kpAam-296">
          <mxGeometry width="35.75" height="28" as="geometry">
            <mxRectangle width="35.75" height="28" as="alternateBounds" />
          </mxGeometry>
        </mxCell>
        <mxCell id="1qNEc1VxTbAyUS8kpAam-298" value="Email" style="shape=partialRectangle;overflow=hidden;connectable=0;fillColor=none;top=0;left=0;bottom=0;right=0;align=left;spacingLeft=6;rounded=1;" vertex="1" parent="1qNEc1VxTbAyUS8kpAam-296">
          <mxGeometry x="35.75" width="84.25" height="28" as="geometry">
            <mxRectangle width="84.25" height="28" as="alternateBounds" />
          </mxGeometry>
        </mxCell>
        <mxCell id="1qNEc1VxTbAyUS8kpAam-299" value="NVARCHAR(100) UNIQUE" style="shape=partialRectangle;overflow=hidden;connectable=0;fillColor=none;top=0;left=0;bottom=0;right=0;align=left;spacingLeft=6;rounded=1;" vertex="1" parent="1qNEc1VxTbAyUS8kpAam-296">
          <mxGeometry x="120" width="170" height="28" as="geometry">
            <mxRectangle width="170" height="28" as="alternateBounds" />
          </mxGeometry>
        </mxCell>
        <mxCell id="1qNEc1VxTbAyUS8kpAam-300" style="shape=partialRectangle;collapsible=0;dropTarget=0;pointerEvents=0;fillColor=none;points=[[0,0.5],[1,0.5]];portConstraint=eastwest;top=0;left=0;right=0;bottom=0;rounded=1;" vertex="1" parent="1qNEc1VxTbAyUS8kpAam-275">
          <mxGeometry y="199" width="290" height="28" as="geometry" />
        </mxCell>
        <mxCell id="1qNEc1VxTbAyUS8kpAam-301" style="shape=partialRectangle;overflow=hidden;connectable=0;fillColor=none;top=0;left=0;bottom=0;right=0;rounded=1;" vertex="1" parent="1qNEc1VxTbAyUS8kpAam-300">
          <mxGeometry width="35.75" height="28" as="geometry">
            <mxRectangle width="35.75" height="28" as="alternateBounds" />
          </mxGeometry>
        </mxCell>
        <mxCell id="1qNEc1VxTbAyUS8kpAam-302" value="Phone" style="shape=partialRectangle;overflow=hidden;connectable=0;fillColor=none;top=0;left=0;bottom=0;right=0;align=left;spacingLeft=6;rounded=1;" vertex="1" parent="1qNEc1VxTbAyUS8kpAam-300">
          <mxGeometry x="35.75" width="84.25" height="28" as="geometry">
            <mxRectangle width="84.25" height="28" as="alternateBounds" />
          </mxGeometry>
        </mxCell>
        <mxCell id="1qNEc1VxTbAyUS8kpAam-303" value="NVARCHAR(20) UNIQUE" style="shape=partialRectangle;overflow=hidden;connectable=0;fillColor=none;top=0;left=0;bottom=0;right=0;align=left;spacingLeft=6;rounded=1;" vertex="1" parent="1qNEc1VxTbAyUS8kpAam-300">
          <mxGeometry x="120" width="170" height="28" as="geometry">
            <mxRectangle width="170" height="28" as="alternateBounds" />
          </mxGeometry>
        </mxCell>
        <mxCell id="1qNEc1VxTbAyUS8kpAam-304" value="OnlineBanking" style="shape=table;startSize=30;container=1;collapsible=1;childLayout=tableLayout;fixedRows=1;rowLines=0;fontStyle=1;align=center;resizeLast=1;swimlaneFillColor=default;rounded=1;fillColor=light-dark(#7EA6E0,var(--ge-dark-color, #121212));" vertex="1" parent="1">
          <mxGeometry x="1000" y="430" width="340" height="148" as="geometry" />
        </mxCell>
        <mxCell id="1qNEc1VxTbAyUS8kpAam-305" value="" style="shape=partialRectangle;collapsible=0;dropTarget=0;pointerEvents=0;fillColor=none;points=[[0,0.5],[1,0.5]];portConstraint=eastwest;top=0;left=0;right=0;bottom=1;rounded=1;" vertex="1" parent="1qNEc1VxTbAyUS8kpAam-304">
          <mxGeometry y="30" width="340" height="30" as="geometry" />
        </mxCell>
        <mxCell id="1qNEc1VxTbAyUS8kpAam-306" value="PK   " style="shape=partialRectangle;overflow=hidden;connectable=0;fillColor=none;top=0;left=0;bottom=0;right=0;fontStyle=1;rounded=1;" vertex="1" parent="1qNEc1VxTbAyUS8kpAam-305">
          <mxGeometry width="35.75" height="30" as="geometry">
            <mxRectangle width="35.75" height="30" as="alternateBounds" />
          </mxGeometry>
        </mxCell>
        <mxCell id="1qNEc1VxTbAyUS8kpAam-307" value="SessionID" style="shape=partialRectangle;overflow=hidden;connectable=0;fillColor=none;top=0;left=0;bottom=0;right=0;align=left;spacingLeft=6;fontStyle=5;rounded=1;" vertex="1" parent="1qNEc1VxTbAyUS8kpAam-305">
          <mxGeometry x="35.75" width="84.25" height="30" as="geometry">
            <mxRectangle width="84.25" height="30" as="alternateBounds" />
          </mxGeometry>
        </mxCell>
        <mxCell id="1qNEc1VxTbAyUS8kpAam-308" value="INT IDENTITY (1,1)" style="shape=partialRectangle;overflow=hidden;connectable=0;fillColor=none;top=0;left=0;bottom=0;right=0;align=left;spacingLeft=6;fontStyle=5;rounded=1;" vertex="1" parent="1qNEc1VxTbAyUS8kpAam-305">
          <mxGeometry x="120" width="220" height="30" as="geometry">
            <mxRectangle width="220" height="30" as="alternateBounds" />
          </mxGeometry>
        </mxCell>
        <mxCell id="1qNEc1VxTbAyUS8kpAam-309" value="" style="shape=partialRectangle;collapsible=0;dropTarget=0;pointerEvents=0;fillColor=none;points=[[0,0.5],[1,0.5]];portConstraint=eastwest;top=0;left=0;right=0;bottom=0;rounded=1;" vertex="1" parent="1qNEc1VxTbAyUS8kpAam-304">
          <mxGeometry y="60" width="340" height="27" as="geometry" />
        </mxCell>
        <mxCell id="1qNEc1VxTbAyUS8kpAam-310" value="FK" style="shape=partialRectangle;overflow=hidden;connectable=0;fillColor=none;top=0;left=0;bottom=0;right=0;rounded=1;" vertex="1" parent="1qNEc1VxTbAyUS8kpAam-309">
          <mxGeometry width="35.75" height="27" as="geometry">
            <mxRectangle width="35.75" height="27" as="alternateBounds" />
          </mxGeometry>
        </mxCell>
        <mxCell id="1qNEc1VxTbAyUS8kpAam-311" value="CustomerID" style="shape=partialRectangle;overflow=hidden;connectable=0;fillColor=none;top=0;left=0;bottom=0;right=0;align=left;spacingLeft=6;rounded=1;" vertex="1" parent="1qNEc1VxTbAyUS8kpAam-309">
          <mxGeometry x="35.75" width="84.25" height="27" as="geometry">
            <mxRectangle width="84.25" height="27" as="alternateBounds" />
          </mxGeometry>
        </mxCell>
        <mxCell id="1qNEc1VxTbAyUS8kpAam-312" value="INT" style="shape=partialRectangle;overflow=hidden;connectable=0;fillColor=none;top=0;left=0;bottom=0;right=0;align=left;spacingLeft=6;rounded=1;" vertex="1" parent="1qNEc1VxTbAyUS8kpAam-309">
          <mxGeometry x="120" width="220" height="27" as="geometry">
            <mxRectangle width="220" height="27" as="alternateBounds" />
          </mxGeometry>
        </mxCell>
        <mxCell id="1qNEc1VxTbAyUS8kpAam-313" style="shape=partialRectangle;collapsible=0;dropTarget=0;pointerEvents=0;fillColor=none;points=[[0,0.5],[1,0.5]];portConstraint=eastwest;top=0;left=0;right=0;bottom=0;rounded=1;" vertex="1" parent="1qNEc1VxTbAyUS8kpAam-304">
          <mxGeometry y="87" width="340" height="28" as="geometry" />
        </mxCell>
        <mxCell id="1qNEc1VxTbAyUS8kpAam-314" style="shape=partialRectangle;overflow=hidden;connectable=0;fillColor=none;top=0;left=0;bottom=0;right=0;rounded=1;" vertex="1" parent="1qNEc1VxTbAyUS8kpAam-313">
          <mxGeometry width="35.75" height="28" as="geometry">
            <mxRectangle width="35.75" height="28" as="alternateBounds" />
          </mxGeometry>
        </mxCell>
        <mxCell id="1qNEc1VxTbAyUS8kpAam-315" value="LastLogin" style="shape=partialRectangle;overflow=hidden;connectable=0;fillColor=none;top=0;left=0;bottom=0;right=0;align=left;spacingLeft=6;rounded=1;" vertex="1" parent="1qNEc1VxTbAyUS8kpAam-313">
          <mxGeometry x="35.75" width="84.25" height="28" as="geometry">
            <mxRectangle width="84.25" height="28" as="alternateBounds" />
          </mxGeometry>
        </mxCell>
        <mxCell id="1qNEc1VxTbAyUS8kpAam-316" value="DATETIME DEFAULT GETDATE()" style="shape=partialRectangle;overflow=hidden;connectable=0;fillColor=none;top=0;left=0;bottom=0;right=0;align=left;spacingLeft=6;rounded=1;" vertex="1" parent="1qNEc1VxTbAyUS8kpAam-313">
          <mxGeometry x="120" width="220" height="28" as="geometry">
            <mxRectangle width="220" height="28" as="alternateBounds" />
          </mxGeometry>
        </mxCell>
        <mxCell id="1qNEc1VxTbAyUS8kpAam-317" style="shape=partialRectangle;collapsible=0;dropTarget=0;pointerEvents=0;fillColor=none;points=[[0,0.5],[1,0.5]];portConstraint=eastwest;top=0;left=0;right=0;bottom=0;rounded=1;" vertex="1" parent="1qNEc1VxTbAyUS8kpAam-304">
          <mxGeometry y="115" width="340" height="28" as="geometry" />
        </mxCell>
        <mxCell id="1qNEc1VxTbAyUS8kpAam-318" style="shape=partialRectangle;overflow=hidden;connectable=0;fillColor=none;top=0;left=0;bottom=0;right=0;rounded=1;" vertex="1" parent="1qNEc1VxTbAyUS8kpAam-317">
          <mxGeometry width="35.75" height="28" as="geometry">
            <mxRectangle width="35.75" height="28" as="alternateBounds" />
          </mxGeometry>
        </mxCell>
        <mxCell id="1qNEc1VxTbAyUS8kpAam-319" value="Status" style="shape=partialRectangle;overflow=hidden;connectable=0;fillColor=none;top=0;left=0;bottom=0;right=0;align=left;spacingLeft=6;rounded=1;" vertex="1" parent="1qNEc1VxTbAyUS8kpAam-317">
          <mxGeometry x="35.75" width="84.25" height="28" as="geometry">
            <mxRectangle width="84.25" height="28" as="alternateBounds" />
          </mxGeometry>
        </mxCell>
        <mxCell id="1qNEc1VxTbAyUS8kpAam-320" value="NVARCHAR(50) NOT NULL" style="shape=partialRectangle;overflow=hidden;connectable=0;fillColor=none;top=0;left=0;bottom=0;right=0;align=left;spacingLeft=6;rounded=1;" vertex="1" parent="1qNEc1VxTbAyUS8kpAam-317">
          <mxGeometry x="120" width="220" height="28" as="geometry">
            <mxRectangle width="220" height="28" as="alternateBounds" />
          </mxGeometry>
        </mxCell>
      </root>
    </mxGraphModel>
  </diagram>
</mxfile>
